<?xml version="1.0" encoding="utf-8"?>
<!-- Generator: Adobe Illustrator 21.0.0, SVG Export Plug-In . SVG Version: 6.00 Build 0)  -->
<svg version="1.1" id="Layer_1" xmlns="http://www.w3.org/2000/svg" xmlns:xlink="http://www.w3.org/1999/xlink" x="0px" y="0px"
	 viewBox="0 0 51.8 40.3" style="enable-background:new 0 0 51.8 40.3;" xml:space="preserve">
<style type="text/css">
	.st0{fill:#0F4E64;}
	.st1{fill:#00937B;}
	.st2{fill:#5AAB6A;}
	.st3{fill:#921C1E;}
	.st4{fill:#13617D;}
</style>
<polygon points="24.8,15 24.9,15 27.7,15 "/>
<path d="M28.8,15h2.8H28.8z"/>
<path d="M34.3,24.6h2.8H34.3z"/>
<path d="M12.9,22.8h2.8H12.9z"/>
<polygon points="20.4,22.8 20.4,22.8 23.2,22.8 23.2,22.8 "/>
<path d="M17.4,15h2.8H17.4z"/>
<rect x="21.6" y="7.7" width="2.8" height="0"/>
<polygon class="st0" points="24.9,19.9 24.9,15 24.8,15 23.4,17.5 18.8,17.5 20.2,15 17.4,15 16.9,15.9 16.9,20.8 17.3,20.1 
	17.3,20.1 17.3,20.1 17.4,19.9 22,19.9 20.4,22.8 23.2,22.8 24.9,19.9 "/>
<path class="st0" d="M11.3,26.6c0.2,0.3,0.5,0.5,0.8,0.5h4.8v-2.5h-2.2l1-1.8h-2.8l-1.7,2.9C11.1,25.9,11.1,26.3,11.3,26.6"/>
<path class="st1" d="M19.5,24.4C19.5,24.4,19.5,24.4,19.5,24.4C19.4,24.4,19.4,24.4,19.5,24.4l-0.1,0.2h-2.4V27h2.6h0.7h0
	c0,0,0,0,0,0c0,0,0,0,0.1,0c0,0,0,0,0.1,0c0,0,0,0,0,0c0,0,0,0,0,0c0,0,0,0,0,0c0,0,0,0,0,0c0.1,0,0.2-0.1,0.3-0.1l0,0
	c0.1-0.1,0.2-0.2,0.3-0.3l0.4-0.6c0,0,0,0,0,0s0,0,0,0l1.8-3.2h-2.8L19.5,24.4z"/>
<polygon class="st1" points="29.2,15.8 30.2,17.5 26.3,17.5 27.3,15.8 27.7,15 24.9,15 24.9,19.9 31.6,19.9 32.8,22 32.8,17.1 
	31.6,15 28.8,15 "/>
<polygon class="st1" points="24.5,7.7 21.6,7.7 17.4,15 20.2,15 "/>
<polygon class="st2" points="32.8,17.1 32.8,22 34.3,24.6 37.2,24.6 "/>
<polygon class="st3" points="24.5,7.7 24.5,7.6 24.5,7.7 24.5,7.7 "/>
<path class="st2" d="M24.5,7.6L24.5,7.6l0-4c0,0,0,0,0,0c-0.3,0-0.6,0.2-0.8,0.5l-2.1,3.6L24.5,7.6L24.5,7.6z"/>
<polygon class="st4" points="16.9,20.8 16.9,15.9 12.9,22.8 15.8,22.8 "/>
<path class="st4" d="M35.4,26.6c0.2,0.3,0.5,0.5,0.8,0.5H37c0.3,0,0.6-0.2,0.8-0.5c0.2-0.3,0.2-0.6,0-0.9l-0.6-1.1h-2.8L35.4,26.6z"
	/>
<path class="st4" d="M25.3,4.1c-0.2-0.3-0.4-0.4-0.8-0.5v4.1l2.3,3.9l-2,3.4h2.8l0.6-1l0.6,1h2.8L25.3,4.1z"/>
<path class="st0" d="M46,35.2v-0.6h-1.3v-0.3h1v-0.5h-1v-0.3H46v-0.6h-1.9v2.4H46z M42.8,35.2h0.6v-2.4h-0.7v1.3l-1.1-1.3h-0.6v2.4
	h0.7v-1.3L42.8,35.2z M40.4,35.2v-2.4h-0.7v2.4H40.4z M37.7,35.2h0.7l0.9-2.4h-0.7L38,34.3l-0.5-1.5h-0.7l0.3,0.7l-0.3,0.9l-0.6-1.6
	h-0.7l0.9,2.4H37l0.3-0.8L37.7,35.2z M32.6,35c0.2,0.1,0.5,0.2,0.9,0.2c0.6,0,1-0.3,1-0.8c0-0.3-0.2-0.5-0.6-0.7l-0.4-0.1
	c-0.1,0-0.2-0.1-0.2-0.2c0-0.1,0.1-0.2,0.3-0.2c0.2,0,0.5,0.1,0.7,0.2l0.2-0.6c-0.2-0.1-0.5-0.2-0.9-0.2c-0.6,0-1,0.3-1,0.7
	c0,0.3,0.2,0.5,0.6,0.7l0.4,0.1c0.1,0,0.2,0.1,0.2,0.2c0,0.1-0.1,0.2-0.3,0.2c-0.3,0-0.5-0.1-0.7-0.2L32.6,35z M32.2,35.2v-0.6h-1.1
	v-1.8h-0.7v2.4H32.2z M29.9,35.2v-0.6h-1.1v-1.8h-0.7v2.4H29.9z M27.5,35.2v-2.4h-0.7v2.4H27.5z M25.4,35.2h0.7v-2.4h-0.7v0.9h-1
	v-0.9h-0.7v2.4h0.7v-0.9h1V35.2z M22.4,35.2v-0.6h-1.3v-0.3h1v-0.5h-1v-0.3h1.3v-0.6h-1.9v2.4H22.4z M18.6,33.4
	c0.3,0,0.6,0.2,0.6,0.6c0,0.4-0.2,0.6-0.6,0.6h-0.4v-1.2H18.6z M17.6,35.2h1.1c0.7,0,1.2-0.4,1.2-1.2c0-0.8-0.5-1.2-1.2-1.2h-1.1
	V35.2z M16.9,35.2v-2.4h-0.7v2.4H16.9z M14.5,33.5l0.3,0.8h-0.6L14.5,33.5z M13.2,35.2h0.7l0.1-0.4H15l0.1,0.4h0.7l-0.9-2.4h-0.8
	L13.2,35.2z M13,35.2v-0.6h-1.1v-1.8h-0.7v2.4H13z M10.6,35.2v-0.6H9.4v-0.3h1v-0.5h-1v-0.3h1.3v-0.6H8.7v2.4H10.6z M6.9,33.4
	c0.3,0,0.6,0.2,0.6,0.6c0,0.4-0.2,0.6-0.6,0.6H6.5v-1.2H6.9z M5.8,35.2h1.1c0.7,0,1.2-0.4,1.2-1.2c0-0.8-0.5-1.2-1.2-1.2H5.8V35.2z
	 M4.1,33.5l0.3,0.8H3.8L4.1,33.5z M2.9,35.2h0.7l0.1-0.4h0.9l0.1,0.4h0.7l-0.9-2.4H3.7L2.9,35.2z"/>
<g>
</g>
<g>
</g>
<g>
</g>
<g>
</g>
<g>
</g>
<g>
</g>
</svg>
