<svg xmlns="http://www.w3.org/2000/svg" width="128.68" height="25.68" viewBox="0 0 128.68 25.68"><title>legend</title><g id="Layer_2" data-name="Layer 2"><g id="Layer_1-2" data-name="Layer 1"><line x1="101.5" y1="7.12" x2="101.5" y2="1.61" fill="none" stroke="#fff" stroke-miterlimit="10" stroke-width="0.27"/><line x1="104.71" y1="7.12" x2="104.71" y2="1.61" fill="none" stroke="#fff" stroke-miterlimit="10" stroke-width="0.27"/><line x1="107.92" y1="7.12" x2="107.92" y2="1.61" fill="none" stroke="#fff" stroke-miterlimit="10" stroke-width="0.27"/><line x1="111.13" y1="7.12" x2="111.13" y2="1.61" fill="none" stroke="#fff" stroke-miterlimit="10" stroke-width="0.27"/><line x1="114.34" y1="7.12" x2="114.34" y2="1.61" fill="none" stroke="#fff" stroke-miterlimit="10" stroke-width="0.27"/><line x1="117.55" y1="7.12" x2="117.55" y2="1.61" fill="none" stroke="#fff" stroke-miterlimit="10" stroke-width="0.27"/><line x1="120.76" y1="7.12" x2="120.76" y2="1.61" fill="none" stroke="#fff" stroke-miterlimit="10" stroke-width="0.27"/><line x1="123.97" y1="7.12" x2="123.97" y2="1.61" fill="none" stroke="#fff" stroke-miterlimit="10" stroke-width="0.27"/><line x1="101.5" y1="14.51" x2="101.5" y2="9" fill="none" stroke="#fff" stroke-miterlimit="10" stroke-width="0.27"/><line x1="104.71" y1="14.51" x2="104.71" y2="9" fill="none" stroke="#fff" stroke-miterlimit="10" stroke-width="0.27"/><line x1="107.92" y1="14.51" x2="107.92" y2="9" fill="none" stroke="#fff" stroke-miterlimit="10" stroke-width="0.27"/><line x1="111.13" y1="14.51" x2="111.13" y2="9" fill="none" stroke="#fff" stroke-miterlimit="10" stroke-width="0.27"/><line x1="114.34" y1="14.51" x2="114.34" y2="9" fill="none" stroke="#fff" stroke-miterlimit="10" stroke-width="0.27"/><line x1="117.55" y1="14.51" x2="117.55" y2="9" fill="none" stroke="#fff" stroke-miterlimit="10" stroke-width="0.27"/><line x1="120.76" y1="14.51" x2="120.76" y2="9" fill="none" stroke="#fff" stroke-miterlimit="10" stroke-width="0.27"/><line x1="123.97" y1="14.51" x2="123.97" y2="9" fill="none" stroke="#fff" stroke-miterlimit="10" stroke-width="0.27"/><line x1="101.5" y1="20.39" x2="101.5" y2="14.88" fill="none" stroke="#fff" stroke-miterlimit="10" stroke-width="0.27"/><line x1="104.71" y1="20.39" x2="104.71" y2="14.88" fill="none" stroke="#fff" stroke-miterlimit="10" stroke-width="0.27"/><line x1="107.92" y1="20.39" x2="107.92" y2="14.88" fill="none" stroke="#fff" stroke-miterlimit="10" stroke-width="0.27"/><line x1="111.13" y1="20.39" x2="111.13" y2="14.88" fill="none" stroke="#fff" stroke-miterlimit="10" stroke-width="0.27"/><line x1="114.34" y1="20.39" x2="114.34" y2="14.88" fill="none" stroke="#fff" stroke-miterlimit="10" stroke-width="0.27"/><line x1="117.55" y1="20.39" x2="117.55" y2="14.88" fill="none" stroke="#fff" stroke-miterlimit="10" stroke-width="0.27"/><line x1="120.76" y1="20.39" x2="120.76" y2="14.88" fill="none" stroke="#fff" stroke-miterlimit="10" stroke-width="0.27"/><line x1="123.97" y1="20.39" x2="123.97" y2="14.88" fill="none" stroke="#fff" stroke-miterlimit="10" stroke-width="0.27"/><polygon points="0.81 1.62 0.81 24.06 0.81 24.87 1.62 24.87 124 24.87 124.33 24.87 124.57 24.63 127.63 21.57 127.87 21.33 127.87 21 127.87 1.62 127.87 0.81 127.06 0.81 1.62 0.81 0.81 0.81 0.81 1.62" fill="none" stroke="#44bfb5" stroke-width="1.62"/><polygon points="125.16 18.07 124.51 17.41 124.45 17.41 123.79 18.07 123.79 18.12 124.45 18.78 124.51 18.78 125.16 18.12 125.16 18.07" fill="#231f20"/><polygon points="122.1 18.07 121.45 17.41 121.39 17.41 120.73 18.07 120.73 18.12 121.39 18.78 121.45 18.78 122.1 18.12 122.1 18.07" fill="#231f20"/><polygon points="119.04 18.07 118.38 17.41 118.32 17.41 117.67 18.07 117.67 18.12 118.32 18.78 118.38 18.78 119.04 18.12 119.04 18.07" fill="#231f20"/><polygon points="115.98 18.07 115.32 17.41 115.26 17.41 114.61 18.07 114.61 18.12 115.26 18.78 115.32 18.78 115.98 18.12 115.98 18.07" fill="#231f20"/><polygon points="112.91 18.07 112.26 17.41 112.2 17.41 111.55 18.07 111.55 18.12 112.2 18.78 112.26 18.78 112.91 18.12 112.91 18.07" fill="#231f20"/><polygon points="103.73 18.07 103.08 17.41 103.02 17.41 102.36 18.07 102.36 18.12 103.02 18.78 103.08 18.78 103.73 18.12 103.73 18.07" fill="#231f20"/><path d="M56.24,18.54c0-.53-.42-.76-.95-.83s-.68-.15-.68-.38.11-.26.45-.26.53.11.53.34l0,0h.45l0,0c0-.45-.3-.79-1-.79s-1,.34-1,.72c0,.53.42.72.94.79s.68.15.68.42-.19.34-.53.34-.61-.15-.61-.42l0,0h-.45l0,0c0,.49.34.87,1.1.87s1.1-.38,1.1-.79m-2.5.72v-.38l0,0H52.46l0,0v-.6l0,0h1.17l0,0v-.38l0,0H52.46l0,0v-.53l0,0h1.25l0,0v-.38l0,0H51.93l0,0v2.57l0,0h1.78Zm-4.61-2.57v2.57l0,0h.45l0,0V17.52h0l1,1.74.08,0h.53l0,0V16.69l0,0h-.45l0,0v1.74h0l-1-1.74-.08,0h-.53Zm-.53,2.57V16.69l0,0h-.45l0,0v2.57l0,0h.45Zm-2.8-2.61,0,0-.49,1.74h0l-.38-1.74,0,0h-.38l0,0v.38L45,19.26l0,0h.49l0,0L46,17.44h0l.49,1.82,0,0h.49l0,0,.57-2.19v-.38l0,0h-.38l0,0-.38,1.74h0l-.49-1.74,0,0Zm-3.25,1.59,0,0h-.64l0,0,.34-.91h0Zm.79,1v-.38l-.87-2.19,0,0h-.49l0,0L41,18.88v.38l0,0h.34l0,0,.19-.49.07,0h.95l.08,0,.19.49,0,0h.34Zm-2.72-1.81c0,.26-.15.34-.38.34h-.72l0,0v-.6l0,0h.72c.23,0,.38.08.38.34m.53,0c0-.53-.38-.79-.91-.79H39l0,0v2.57l0,0h.45l0,0v-1l0,0h.72c.53,0,.91-.27.91-.79m-3,0c0,.26-.15.34-.38.34H37l0,0v-.6l0,0h.72c.23,0,.38.08.38.34m.53,0c0-.53-.38-.79-.91-.79H36.51l0,0v2.57l0,0H37l0,0v-1l0,0h.72c.53,0,.91-.27.91-.79m-3.29.79,0,0h-.64l0,0,.34-.91h0Zm.79,1v-.38l-.87-2.19,0,0h-.49l0,0-.87,2.19v.38l0,0h.34l0,0,.19-.49.08,0h.95l.08,0,.19.49,0,0h.34Zm-4.84-2.57v2.57l0,0h.45l0,0V17.52h0l1,1.74.08,0h.53l0,0V16.69l0,0h-.45l0,0v1.74h0l-1-1.74-.08,0h-.53Zm-1.1,1.55,0,0h-.64l0,0,.34-.91h0Zm.79,1v-.38l-.87-2.19,0,0h-.49l0,0-.87,2.19v.38l0,0h.34l0,0,.19-.49.08,0h.95l.08,0,.19.49,0,0H31ZM28.3,17.44c0,.26-.15.34-.38.34h-.72l0,0v-.6l0,0h.72c.23,0,.38.08.38.34m.53,0c0-.53-.38-.79-.91-.79H26.68l0,0v2.57l0,0h.45l0,0v-1l0,0h.72c.53,0,.91-.27.91-.79m-3.29.79,0,0h-.64l0,0,.34-.91h0Zm.79,1v-.38l-.87-2.19,0,0h-.49l0,0L24,18.88v.38l0,0h.34l0,0,.19-.49.08,0h.95l.08,0,.19.49,0,0h.34Zm-2.15-2.19v-.38l0,0H22l0,0v.38l0,0h.76l0,0v2.12l0,0h.45l0,0V17.14l0,0h.76Z" fill="#231f20"/><path d="M17,16.88v-.19l0,0H15.45l0,0v.11l0,0h1.32v0l-1.06,2.23v.15l0,0h.08l0,0Zm-2.91,2.46a.93.93,0,0,0,1-.83l0,0h-.15l0,0a.72.72,0,0,1-.79.64c-.57,0-1-.41-1-1.17s.42-1.17,1-1.17a.72.72,0,0,1,.79.6l0,0h.15l0,0a.93.93,0,0,0-1-.79A1.21,1.21,0,0,0,12.88,18a1.22,1.22,0,0,0,1.21,1.36" fill="#231f20"/><path d="M9,18.35a.79.79,0,0,0-.79-.87.51.51,0,0,0-.45.19h0l0-.53,0,0H8.81l0,0v-.38l0,0H7.26l0,0-.08,1.44,0,0,.38,0,.07,0a.44.44,0,0,1,.42-.23c.26,0,.38.19.38.45s-.15.49-.42.49-.34-.07-.38-.3l0,0H7.15l0,0a.8.8,0,0,0,.91.76.87.87,0,0,0,.94-1M6,18l0,0H5.34v0L6,17.29H6Zm.53,1.21V16.69l0,0H6l-.07,0L4.81,18l0,.08v.41l0,0H6l0,0v.68l0,0h.45Z" fill="#231f20"/><polygon points="125.16 12.18 124.51 11.53 124.45 11.53 123.79 12.18 123.79 12.24 124.45 12.89 124.51 12.89 125.16 12.24 125.16 12.18" fill="#231f20"/><polygon points="122.1 12.18 121.45 11.53 121.39 11.53 120.73 12.18 120.73 12.24 121.39 12.89 121.45 12.89 122.1 12.24 122.1 12.18" fill="#231f20"/><polygon points="119.04 12.18 118.38 11.53 118.32 11.53 117.67 12.18 117.67 12.24 118.32 12.89 118.38 12.89 119.04 12.24 119.04 12.18" fill="#231f20"/><polygon points="115.98 12.18 115.32 11.53 115.26 11.53 114.61 12.18 114.61 12.24 115.26 12.89 115.32 12.89 115.98 12.24 115.98 12.18" fill="#231f20"/><polygon points="112.91 12.18 112.26 11.53 112.2 11.53 111.55 12.18 111.55 12.24 112.2 12.89 112.26 12.89 112.91 12.24 112.91 12.18" fill="#231f20"/><polygon points="103.73 12.18 103.08 11.53 103.02 11.53 102.36 12.18 102.36 12.24 103.02 12.89 103.08 12.89 103.73 12.24 103.73 12.18" fill="#231f20"/><path d="M74,12.09c0,.6-.19.87-.72.87H73l0,0V11.26l0,0h.34c.53,0,.72.27.72.87m.53,0c0-.83-.34-1.32-1.29-1.32h-.83l0,0v2.57l0,0h.83c.95,0,1.29-.49,1.29-1.32m-3.06-.53c0,.27-.15.34-.38.34h-.72l0,0v-.6l0,0h.72c.23,0,.38.08.38.34m.53,0c0-.53-.38-.79-.91-.79H69.88l0,0v2.57l0,0h.45l0,0v-1l0,0h.38l.08,0,.76,1,.08,0h.23l0,0V13l-.49-.64v0a.75.75,0,0,0,.57-.76m-3.29.79,0,0h-.64l0,0,.34-.91h0Zm.79,1V13l-.87-2.19,0,0h-.49l0,0L67.24,13v.38l0,0h.34l0,0,.19-.49.08,0h.95l.08,0,.19.49,0,0h.34Zm-2.19-2.19V10.8l0,0H67l-.08,0-.6,1h-.08l-.6-1-.08,0h-.26l0,0v.38l.76,1.25v.95l0,0h.45l0,0v-.95ZM65,13.37V13l0,0H63.76l0,0v-.61l0,0h1.17l0,0v-.38l0,0H63.76l0,0v-.53l0,0H65l0,0V10.8l0,0H63.23l0,0v2.57l0,0H65ZM60.43,10.8v2.57l0,0h.45l0,0V11.63h0l1,1.74.08,0h.53l0,0V10.8l0,0h-.45l0,0v1.74h0l-1-1.74-.08,0h-.53Zm-.53,2.57V10.8l0,0h-.45l0,0v2.57l0,0h.45ZM59,11.18V10.8l0,0h-.34l0,0-.68,1.85h0l-.68-1.85,0,0h-.34l0,0v.38l.83,2.19,0,0h.49l0,0Zm-3.25,1.47c0-.53-.42-.76-.94-.83s-.68-.15-.68-.38.11-.27.45-.27.53.11.53.34l0,0h.45l0,0c0-.45-.3-.79-1-.79s-1,.34-1,.72c0,.53.42.72.94.79s.68.15.68.42-.19.34-.53.34-.61-.15-.61-.42l0,0h-.45l0,0c0,.49.34.87,1.1.87s1.1-.38,1.1-.79m-2.49.72V13l0,0H52l0,0v-.61l0,0h1.17l0,0v-.38l0,0H52l0,0v-.53l0,0h1.25l0,0V10.8l0,0H51.48l0,0v2.57l0,0h1.78Zm-2.31,0V12l0,0H49.77l0,0v.38l0,0h.64l0,0c0,.3-.19.53-.61.53s-.76-.38-.76-.91.26-.91.76-.91a.57.57,0,0,1,.61.34l0,0h.45l0,0a1,1,0,0,0-1.13-.79,1.25,1.25,0,0,0-1.28,1.36,1.24,1.24,0,0,0,1.25,1.36.88.88,0,0,0,.68-.27h0l0,.19,0,0h.34ZM46,10.8v2.57l0,0h.45l0,0V11.63h0l1,1.74.08,0h.53l0,0V10.8l0,0H47.7l0,0v1.74h0l-1-1.74-.08,0H46Zm-1.1,1.55,0,0h-.64l0,0,.34-.91h0Zm.79,1V13l-.87-2.19,0,0h-.49l0,0L43.35,13v.38l0,0h.34l0,0,.19-.49.08,0H45l.07,0,.19.49,0,0h.34Zm-3-1.81c0,.27-.15.34-.38.34h-.72l0,0v-.6l0,0h.72c.23,0,.38.08.38.34m.53,0c0-.53-.38-.79-.91-.79H41l0,0v2.57l0,0h.45l0,0v-1l0,0h.38l.08,0,.76,1,.08,0h.23l0,0V13l-.49-.64v0a.75.75,0,0,0,.57-.76m-3.4-.38V10.8l0,0h-.27l-.07,0-.61,1h-.08l-.6-1-.08,0h-.26l0,0v.38l.76,1.25v.95l0,0H39l0,0v-.95Zm-2.19,0V10.8l0,0H35.45l0,0v.38l0,0h.76l0,0v2.12l0,0h.45l0,0V11.26l0,0h.76Zm-2.34,0V10.8l0,0h-1.7l0,0v2.57l0,0H34l0,0v-1l0,0h1.1l0,0V11.9l0,0H34l0,0v-.57l0,0h1.17Zm-2.15.91a1.29,1.29,0,1,0-2.57,0,1.29,1.29,0,1,0,2.57,0m-.53,0c0,.53-.26.91-.76.91s-.76-.38-.76-.91.27-.91.76-.91.76.38.76.91m-2.08,1.29V13l0,0H29.29l0,0V10.8l0,0h-.45l0,0v2.57l0,0h1.7Zm-2.95-2.19V10.8l0,0H25.39l0,0v.38l0,0h.76l0,0v2.12l0,0h.45l0,0V11.26l0,0h.76Zm-2.49,2.19V10.8l0,0h-.57l0,0-.76,1.85h0l-.76-1.85,0,0h-.57l0,0v2.57l0,0h.45l0,0V11.9h0l.6,1.47,0,0h.42l0,0,.61-1.47h0v1.47l0,0H25Z" fill="#231f20"/><path d="M16.89,12.47a.78.78,0,0,0-.83-.87.77.77,0,0,0-.57.23h0l0-.83,0,0h1.21l0,0V10.8l0,0h-1.4l0,0-.08,1.32,0,0h.15l.07,0a.57.57,0,0,1,.57-.34c.42,0,.6.3.6.72s-.23.76-.64.76a.57.57,0,0,1-.6-.57l0,0h-.15l0,0a.76.76,0,0,0,.83.76c.57,0,.87-.34.87-1m-2.15.91v-.11l0,0H13.3l0,0v-1l0,0h1.32l0,0V12l0,0H13.3l0,0V11l0,0h1.4l0,0V10.8l0,0H13.07l0,0v2.57l0,0h1.63Z" fill="#231f20"/><path d="M8.7,11.22V10.8l0,0H7l0,0v.38l0,0H8.13v0L7.26,13v.38l0,0h.3l0,0Zm-2,2.16V13l0,0H5.52v0L6,12.54c.45-.38.64-.6.64-1a.8.8,0,0,0-.87-.79.8.8,0,0,0-.91.83l0,0h.45l0,0c0-.23.08-.38.38-.38s.34.15.34.38-.08.38-.53.76l-.68.57,0,.08v.42l0,0H6.66Z" fill="#231f20"/><path d="M125.54,5.79V3.27h-.27V4.41h-.43V3.27h-.28V5.79h.28V4.67h.43V5.79Zm-1.49-1.5c0,.12,0,.19-.14.19h-.23V3.53h.23c.1,0,.14.06.14.18Zm.28,0V3.73a.4.4,0,0,0-.42-.46h-.49V5.79h.27V4.72h.22a.4.4,0,0,0,.42-.46" fill="#231f20"/><path d="M121.9,5.28a1.39,1.39,0,0,0-.36-.84,1.12,1.12,0,0,1-.32-.73c0-.15.07-.23.21-.23s.2.1.2.28V4h.26v-.3a.45.45,0,0,0-.45-.5c-.32,0-.48.23-.48.55a1.59,1.59,0,0,0,.39.86,1.1,1.1,0,0,1,.29.7c0,.16-.07.26-.22.26s-.21-.11-.21-.28V5h-.27v.29a.46.46,0,0,0,.48.49.48.48,0,0,0,.48-.55" fill="#231f20"/><path d="M118.83,5.28a1.39,1.39,0,0,0-.36-.84,1.12,1.12,0,0,1-.32-.73c0-.15.07-.23.2-.23s.2.1.2.28V4h.26v-.3a.45.45,0,0,0-.45-.5c-.32,0-.48.23-.48.55a1.59,1.59,0,0,0,.39.86,1.1,1.1,0,0,1,.29.7c0,.16-.07.26-.22.26s-.21-.11-.21-.28V5h-.26v.29a.46.46,0,0,0,.48.49.48.48,0,0,0,.48-.55" fill="#231f20"/><polygon points="115.73 3.27 114.94 3.27 114.94 5.79 115.22 5.79 115.22 4.63 115.62 4.63 115.62 4.39 115.22 4.39 115.22 3.52 115.73 3.52 115.73 3.27" fill="#231f20"/><polygon points="112.7 3.27 111.77 3.27 111.77 3.53 112.1 3.53 112.1 5.79 112.37 5.79 112.37 3.53 112.7 3.53 112.7 3.27" fill="#231f20"/><polygon points="109.95 3.27 109.69 3.27 109.51 5.08 109.3 3.27 109.08 3.27 108.83 5.08 108.67 3.27 108.4 3.27 108.68 5.79 108.94 5.79 109.16 4.16 109.36 5.79 109.61 5.79 109.95 3.27" fill="#231f20"/><polygon points="106.58 3.27 105.64 3.27 105.64 3.53 105.98 3.53 105.98 5.79 106.25 5.79 106.25 3.53 106.58 3.53 106.58 3.27" fill="#231f20"/><polygon points="103.71 5.79 103.71 3.27 103.33 3.27 103.11 4.83 103.05 5.27 102.99 4.83 102.76 3.27 102.38 3.27 102.38 5.79 102.62 5.79 102.62 3.88 102.68 4.32 102.92 5.79 103.17 5.79 103.4 4.32 103.46 3.88 103.46 5.79 103.71 5.79" fill="#231f20"/><path d="M100,5.28a1.39,1.39,0,0,0-.36-.84,1.12,1.12,0,0,1-.32-.73c0-.15.07-.23.21-.23s.2.1.2.28V4H100v-.3a.45.45,0,0,0-.45-.5c-.32,0-.48.23-.48.55a1.59,1.59,0,0,0,.39.86,1.1,1.1,0,0,1,.29.7c0,.16-.07.26-.22.26s-.21-.11-.21-.28V5H99v.29a.46.46,0,0,0,.48.49.48.48,0,0,0,.48-.55m-1.08-2h-.26l-.27,1.17L98.1,3.27h-.27l.39,1.52v1h.27v-1ZM97.42,5h-.28l.15-1.12Zm.38.8-.37-2.52h-.28l-.38,2.52H97l.08-.54h.35l.07.54Zm-1.48-.53c0,.19-.06.27-.2.27h-.21v-2h.21c.14,0,.2.08.2.27Zm.27,0V3.83c0-.35-.14-.56-.46-.56h-.49V5.79h.49c.32,0,.46-.2.46-.56m-1.71.56V4.54h-.46v.24h.2v.57a.21.21,0,0,1-.22.23.2.2,0,0,1-.21-.23V3.71a.2.2,0,0,1,.21-.22.2.2,0,0,1,.21.21v.39h.25V3.75c0-.31-.16-.52-.46-.52a.48.48,0,0,0-.48.52V5.31c0,.33.2.52.44.52a.34.34,0,0,0,.34-.19l.07.15Zm-1.25,0V3.27h-.26V5l-.11-.41-.39-1.29h-.24V5.79h.26V4.11l.12.4.43,1.27Zm-1.32,0V3.27H92V5.79Zm-.59,0V3.27h-.26V5l-.11-.41L91,3.27h-.25V5.79H91V4.11l.12.4.43,1.27Zm-1.26,0V5.54h-.53V4.61h.38V4.36h-.38V3.53h.53V3.27h-.8V5.79Zm-1.32-1.5c0,.12,0,.19-.14.19h-.23v-1H89c.1,0,.14.06.14.18Zm.28,0V3.73A.4.4,0,0,0,89,3.27H88.5V5.79h.27V4.72H89a.4.4,0,0,0,.42-.46M87.93,5.34a.21.21,0,0,1-.22.23.2.2,0,0,1-.21-.23V3.72a.21.21,0,0,1,.21-.23.21.21,0,0,1,.22.23Zm.27,0V3.76a.49.49,0,1,0-1,0V5.3a.49.49,0,1,0,1,0m-60.63.49V5.54H27V4.61h.38V4.36H27V3.53h.53V3.27h-.8V5.79ZM26.5,5.32V4.91h-.24v.44a.22.22,0,1,1-.43,0V3.71a.22.22,0,1,1,.43,0v.44h.24V3.74A.45.45,0,0,0,26,3.23a.48.48,0,0,0-.48.52V5.31a.48.48,0,0,0,.48.52.45.45,0,0,0,.46-.51m-1.23.47V3.27H25V5l-.11-.41-.39-1.29h-.24V5.79h.26V4.11l.12.4.43,1.27ZM24,5.79V5.54h-.53V4.61h.38V4.36h-.38V3.53H24V3.27h-.8V5.79ZM22.63,4.24c0,.13-.07.21-.17.21h-.2V3.53h.22c.1,0,.15.06.15.18ZM23,5.81V5.63c-.05,0-.07,0-.07-.1V4.92a.34.34,0,0,0-.22-.36c.16,0,.21-.17.21-.36V3.73c0-.34-.18-.45-.42-.45H22V5.79h.28V4.68h.21c.11,0,.18.08.18.21v.65c0,.21.07.27.25.27Zm-1.25,0V5.54H21.2V4.61h.38V4.36H21.2V3.53h.53V3.27h-.8V5.79Zm-1-2.27V3.27h-.78V5.79h.28V4.63h.4V4.39h-.4V3.52Zm-1,2.27V5.54h-.53V4.61h.38V4.36h-.38V3.53h.53V3.27h-.8V5.79ZM18.28,4.24c0,.13-.07.21-.18.21h-.2V3.53h.22c.1,0,.15.06.15.18Zm.35,1.58V5.63c-.05,0-.07,0-.07-.1V4.92a.34.34,0,0,0-.22-.36c.16,0,.21-.17.21-.36V3.73c0-.34-.18-.45-.42-.45h-.5V5.79h.28V4.68h.21c.11,0,.17.08.17.21v.65c0,.21.07.27.25.27Zm-2-.56c0,.19-.06.27-.2.27h-.21v-2h.21c.14,0,.2.08.2.27Zm.27,0V3.83c0-.35-.14-.56-.46-.56h-.49V5.79h.49c.33,0,.46-.2.46-.56m-1.27.56V3.27h-.28V5.79Zm-.85-1.55c0,.13-.07.21-.17.21h-.2V3.53h.22c.1,0,.15.06.15.18Zm.35,1.58V5.63c-.05,0-.07,0-.07-.1V4.92a.34.34,0,0,0-.22-.36c.16,0,.21-.17.21-.36V3.73c0-.34-.18-.45-.42-.45h-.5V5.79h.27V4.68h.21c.11,0,.17.08.17.21v.65c0,.21.07.27.25.27Zm-1.28,0V4.54h-.47v.24h.2v.57a.21.21,0,0,1-.22.23.2.2,0,0,1-.21-.23V3.71a.2.2,0,0,1,.21-.22.2.2,0,0,1,.21.21v.39h.25V3.75c0-.31-.16-.52-.46-.52a.48.48,0,0,0-.48.52V5.31c0,.33.2.52.44.52a.34.34,0,0,0,.34-.19l.07.15Z" fill="#231f20"/></g></g></svg>