<svg xmlns="http://www.w3.org/2000/svg" width="112.46" height="25.68" viewBox="0 0 112.46 25.68"><title>legend_1</title><g id="Layer_2" data-name="Layer 2"><g id="Layer_1-2" data-name="Layer 1"><polygon points="0.81 1.62 0.81 24.06 0.81 24.87 1.62 24.87 107.78 24.87 108.11 24.87 108.35 24.63 111.41 21.57 111.65 21.33 111.65 21 111.65 1.62 111.65 0.81 110.84 0.81 1.62 0.81 0.81 0.81 0.81 1.62" fill="#fff"/><rect x="1.65" y="9.81" width="109.16" height="5.07" fill="#e5ece9"/><line x1="85.29" y1="7.12" x2="85.29" y2="1.61" fill="none" stroke="#fff" stroke-miterlimit="10" stroke-width="0.27"/><line x1="88.5" y1="7.12" x2="88.5" y2="1.61" fill="none" stroke="#fff" stroke-miterlimit="10" stroke-width="0.27"/><line x1="91.71" y1="7.12" x2="91.71" y2="1.61" fill="none" stroke="#fff" stroke-miterlimit="10" stroke-width="0.27"/><line x1="94.92" y1="7.12" x2="94.92" y2="1.61" fill="none" stroke="#fff" stroke-miterlimit="10" stroke-width="0.27"/><line x1="98.13" y1="7.12" x2="98.13" y2="1.61" fill="none" stroke="#fff" stroke-miterlimit="10" stroke-width="0.27"/><line x1="101.34" y1="7.12" x2="101.34" y2="1.61" fill="none" stroke="#fff" stroke-miterlimit="10" stroke-width="0.27"/><line x1="104.55" y1="7.12" x2="104.55" y2="1.61" fill="none" stroke="#fff" stroke-miterlimit="10" stroke-width="0.27"/><line x1="107.76" y1="7.12" x2="107.76" y2="1.61" fill="none" stroke="#fff" stroke-miterlimit="10" stroke-width="0.27"/><line x1="85.29" y1="14.51" x2="85.29" y2="9" fill="none" stroke="#fff" stroke-miterlimit="10" stroke-width="0.27"/><line x1="88.5" y1="14.51" x2="88.5" y2="9" fill="none" stroke="#fff" stroke-miterlimit="10" stroke-width="0.27"/><line x1="91.71" y1="14.51" x2="91.71" y2="9" fill="none" stroke="#fff" stroke-miterlimit="10" stroke-width="0.27"/><line x1="94.92" y1="14.51" x2="94.92" y2="9" fill="none" stroke="#fff" stroke-miterlimit="10" stroke-width="0.27"/><line x1="98.13" y1="14.51" x2="98.13" y2="9" fill="none" stroke="#fff" stroke-miterlimit="10" stroke-width="0.27"/><line x1="101.34" y1="14.51" x2="101.34" y2="9" fill="none" stroke="#fff" stroke-miterlimit="10" stroke-width="0.27"/><line x1="104.55" y1="14.51" x2="104.55" y2="9" fill="none" stroke="#fff" stroke-miterlimit="10" stroke-width="0.27"/><line x1="107.76" y1="14.51" x2="107.76" y2="9" fill="none" stroke="#fff" stroke-miterlimit="10" stroke-width="0.27"/><line x1="85.29" y1="20.39" x2="85.29" y2="14.88" fill="none" stroke="#fff" stroke-miterlimit="10" stroke-width="0.27"/><line x1="88.5" y1="20.39" x2="88.5" y2="14.88" fill="none" stroke="#fff" stroke-miterlimit="10" stroke-width="0.27"/><line x1="91.71" y1="20.39" x2="91.71" y2="14.88" fill="none" stroke="#fff" stroke-miterlimit="10" stroke-width="0.27"/><line x1="94.92" y1="20.39" x2="94.92" y2="14.88" fill="none" stroke="#fff" stroke-miterlimit="10" stroke-width="0.27"/><line x1="98.13" y1="20.39" x2="98.13" y2="14.88" fill="none" stroke="#fff" stroke-miterlimit="10" stroke-width="0.27"/><line x1="101.34" y1="20.39" x2="101.34" y2="14.88" fill="none" stroke="#fff" stroke-miterlimit="10" stroke-width="0.27"/><line x1="104.55" y1="20.39" x2="104.55" y2="14.88" fill="none" stroke="#fff" stroke-miterlimit="10" stroke-width="0.27"/><line x1="107.76" y1="20.39" x2="107.76" y2="14.88" fill="none" stroke="#fff" stroke-miterlimit="10" stroke-width="0.27"/><polygon points="109.58 18.07 108.93 17.41 108.87 17.41 108.21 18.07 108.21 18.12 108.87 18.78 108.93 18.78 109.58 18.12 109.58 18.07" fill="#231f20"/><polygon points="106.52 18.07 105.86 17.41 105.8 17.41 105.15 18.07 105.15 18.12 105.8 18.78 105.86 18.78 106.52 18.12 106.52 18.07" fill="#231f20"/><polygon points="103.46 18.07 102.8 17.41 102.74 17.41 102.09 18.07 102.09 18.12 102.74 18.78 102.8 18.78 103.46 18.12 103.46 18.07" fill="#231f20"/><polygon points="100.39 18.07 99.74 17.41 99.68 17.41 99.03 18.07 99.03 18.12 99.68 18.78 99.74 18.78 100.39 18.12 100.39 18.07" fill="#231f20"/><polygon points="97.33 18.07 96.68 17.41 96.62 17.41 95.97 18.07 95.97 18.12 96.62 18.78 96.68 18.78 97.33 18.12 97.33 18.07" fill="#231f20"/><polygon points="87.51 18.07 86.86 17.41 86.8 17.41 86.15 18.07 86.15 18.12 86.8 18.78 86.86 18.78 87.51 18.12 87.51 18.07" fill="#231f20"/><polygon points="109.58 12.18 108.93 11.53 108.87 11.53 108.21 12.18 108.21 12.24 108.87 12.89 108.93 12.89 109.58 12.24 109.58 12.18" fill="#231f20"/><polygon points="106.52 12.18 105.86 11.53 105.8 11.53 105.15 12.18 105.15 12.24 105.8 12.89 105.86 12.89 106.52 12.24 106.52 12.18" fill="#231f20"/><polygon points="103.46 12.18 102.8 11.53 102.74 11.53 102.09 12.18 102.09 12.24 102.74 12.89 102.8 12.89 103.46 12.24 103.46 12.18" fill="#231f20"/><polygon points="100.39 12.18 99.74 11.53 99.68 11.53 99.03 12.18 99.03 12.24 99.68 12.89 99.74 12.89 100.39 12.24 100.39 12.18" fill="#231f20"/><polygon points="97.33 12.18 96.68 11.53 96.62 11.53 95.97 12.18 95.97 12.24 96.62 12.89 96.68 12.89 97.33 12.24 97.33 12.18" fill="#231f20"/><polygon points="87.51 12.18 86.86 11.53 86.8 11.53 86.15 12.18 86.15 12.24 86.8 12.89 86.86 12.89 87.51 12.24 87.51 12.18" fill="#231f20"/><path d="M109.33,5.79V3.27h-.27V4.41h-.43V3.27h-.28V5.79h.28V4.67h.43V5.79Zm-1.49-1.5c0,.12,0,.19-.14.19h-.23V3.53h.23c.1,0,.14.06.14.18Zm.28,0V3.73a.4.4,0,0,0-.42-.46h-.49V5.79h.27V4.72h.22a.4.4,0,0,0,.42-.46" fill="#231f20"/><path d="M105.68,5.28a1.39,1.39,0,0,0-.36-.84,1.12,1.12,0,0,1-.32-.73c0-.15.07-.23.21-.23s.2.1.2.28V4h.26v-.3a.45.45,0,0,0-.45-.5c-.32,0-.48.23-.48.55a1.59,1.59,0,0,0,.39.86,1.1,1.1,0,0,1,.29.7c0,.16-.07.26-.22.26s-.21-.11-.21-.28V5h-.27v.29a.46.46,0,0,0,.48.49.48.48,0,0,0,.48-.55" fill="#231f20"/><polygon points="0.81 1.62 0.81 24.06 0.81 24.87 1.62 24.87 107.78 24.87 108.11 24.87 108.35 24.63 111.41 21.57 111.65 21.33 111.65 21 111.65 1.62 111.65 0.81 110.84 0.81 1.62 0.81 0.81 0.81 0.81 1.62" fill="none" stroke="#44bfb5" stroke-width="1.62"/><path d="M102.62,5.28a1.39,1.39,0,0,0-.36-.84,1.12,1.12,0,0,1-.32-.73c0-.15.07-.23.2-.23s.2.1.2.28V4h.26v-.3a.45.45,0,0,0-.45-.5c-.32,0-.48.23-.48.55a1.59,1.59,0,0,0,.39.86,1.1,1.1,0,0,1,.29.7c0,.16-.07.26-.22.26s-.21-.11-.21-.28V5h-.26v.29a.46.46,0,0,0,.48.49.48.48,0,0,0,.48-.55" fill="#231f20"/><polygon points="99.51 3.27 98.73 3.27 98.73 5.79 99 5.79 99 4.63 99.4 4.63 99.4 4.39 99 4.39 99 3.52 99.51 3.52 99.51 3.27" fill="#231f20"/><polygon points="96.48 3.27 95.55 3.27 95.55 3.53 95.89 3.53 95.89 5.79 96.16 5.79 96.16 3.53 96.48 3.53 96.48 3.27" fill="#231f20"/><polygon points="93.73 3.27 93.48 3.27 93.29 5.08 93.08 3.27 92.86 3.27 92.61 5.08 92.45 3.27 92.18 3.27 92.47 5.79 92.72 5.79 92.94 4.16 93.14 5.79 93.4 5.79 93.73 3.27" fill="#231f20"/><polygon points="90.36 3.27 89.43 3.27 89.43 3.53 89.76 3.53 89.76 5.79 90.03 5.79 90.03 3.53 90.36 3.53 90.36 3.27" fill="#231f20"/><polygon points="87.5 5.79 87.5 3.27 87.12 3.27 86.89 4.83 86.83 5.27 86.77 4.83 86.55 3.27 86.16 3.27 86.16 5.79 86.4 5.79 86.4 3.88 86.46 4.32 86.7 5.79 86.95 5.79 87.18 4.32 87.24 3.88 87.24 5.79 87.5 5.79" fill="#231f20"/><path d="M83.75,5.28a1.39,1.39,0,0,0-.36-.84,1.12,1.12,0,0,1-.32-.73c0-.15.07-.23.21-.23s.2.1.2.28V4h.26v-.3a.45.45,0,0,0-.45-.5c-.32,0-.48.23-.48.55a1.59,1.59,0,0,0,.39.86,1.1,1.1,0,0,1,.29.7c0,.16-.07.26-.22.26s-.21-.11-.21-.28V5h-.26v.29a.46.46,0,0,0,.48.49.48.48,0,0,0,.48-.55m-1.08-2h-.26l-.27,1.17-.27-1.17h-.27L82,4.8v1h.27v-1ZM81.2,5h-.28l.15-1.12Zm.38.8-.37-2.52h-.28l-.38,2.52h.26l.08-.54h.35l.07.54ZM80.1,5.26c0,.19-.06.27-.2.27h-.21v-2h.21c.14,0,.2.08.2.27Zm.27,0V3.83c0-.35-.14-.56-.46-.56h-.49V5.79h.49c.32,0,.46-.2.46-.56m-1.71.56V4.54H78.2v.24h.2v.57a.21.21,0,0,1-.22.23A.2.2,0,0,1,78,5.35V3.71a.2.2,0,0,1,.21-.22.2.2,0,0,1,.21.21v.39h.25V3.75c0-.31-.16-.52-.46-.52a.48.48,0,0,0-.48.52V5.31c0,.33.2.52.44.52a.34.34,0,0,0,.34-.19l.07.15Zm-1.25,0V3.27h-.26V5L77,4.56l-.39-1.29H76.4V5.79h.26V4.11l.12.4.43,1.27Zm-1.32,0V3.27h-.28V5.79Zm-.59,0V3.27h-.26V5l-.11-.41-.39-1.29H74.5V5.79h.26V4.11l.12.4.43,1.27Zm-1.26,0V5.54h-.53V4.61h.38V4.36h-.38V3.53h.53V3.27h-.8V5.79Zm-1.32-1.5c0,.12,0,.19-.14.19h-.23v-1h.23c.1,0,.14.06.14.18Zm.28,0V3.73a.4.4,0,0,0-.42-.46h-.49V5.79h.27V4.72h.22a.4.4,0,0,0,.42-.46M71.72,5.34a.21.21,0,0,1-.22.23.2.2,0,0,1-.21-.23V3.72a.21.21,0,0,1,.21-.23.21.21,0,0,1,.22.23Zm.27,0V3.76a.49.49,0,1,0-1,0V5.3a.49.49,0,1,0,1,0" fill="#231f20"/><path d="M48,12.91c0-.53-.42-.76-.95-.83s-.68-.15-.68-.38.11-.26.45-.26.53.11.53.34l0,0h.45l0,0c0-.45-.3-.79-1-.79s-1,.34-1,.72c0,.53.42.72.94.79s.68.15.68.42-.19.34-.53.34-.61-.15-.61-.42l0,0h-.45l0,0c0,.49.34.87,1.1.87s1.1-.38,1.1-.79m-2.5.72v-.38l0,0H44.2l0,0v-.6l0,0h1.17l0,0v-.38l0,0H44.2l0,0v-.53l0,0h1.25l0,0v-.38l0,0H43.67l0,0v2.57l0,0h1.78Zm-4.61-2.57v2.57l0,0h.45l0,0V11.89h0l1,1.74.08,0h.53l0,0V11.06l0,0h-.45l0,0V12.8h0l-1-1.74-.08,0h-.53Zm-.53,2.57V11.06l0,0h-.45l0,0v2.57l0,0h.45ZM37.55,11l0,0L37,12.8h0l-.38-1.74,0,0h-.38l0,0v.38l.57,2.19,0,0h.49l0,0,.49-1.82h0l.49,1.82,0,0h.49l0,0,.57-2.19v-.38l0,0H39l0,0L38.6,12.8h0l-.49-1.74,0,0Zm-3.25,1.59,0,0h-.64l0,0,.34-.91h0Zm.79,1v-.38l-.87-2.19,0,0h-.49l0,0-.87,2.19v.38l0,0h.34l0,0,.19-.49.07,0h.95l.08,0,.19.49,0,0h.34Zm-2.72-1.81c0,.26-.15.34-.38.34h-.72l0,0v-.6l0,0H32c.23,0,.38.08.38.34m.53,0c0-.53-.38-.79-.91-.79H30.74l0,0v2.57l0,0h.45l0,0v-1l0,0H32c.53,0,.91-.27.91-.79m-3,0c0,.26-.15.34-.38.34h-.72l0,0v-.6l0,0h.72c.23,0,.38.08.38.34m.53,0c0-.53-.38-.79-.91-.79H28.25l0,0v2.57l0,0h.45l0,0v-1l0,0h.72c.53,0,.91-.27.91-.79m-3.29.79,0,0h-.64l0,0,.34-.91h0Zm.79,1v-.38L27,11.06l0,0h-.49l0,0-.87,2.19v.38l0,0H26l0,0,.19-.49.08,0h.95l.08,0,.19.49,0,0h.34Zm-4.84-2.57v2.57l0,0h.45l0,0V11.89h0l1,1.74.08,0h.53l0,0V11.06l0,0h-.45l0,0V12.8h0l-1-1.74-.08,0h-.53ZM22,12.61l0,0h-.64l0,0,.34-.91h0Zm.79,1v-.38l-.87-2.19,0,0h-.49l0,0-.87,2.19v.38l0,0h.34l0,0,.19-.49.08,0h.95l.08,0,.19.49,0,0h.34ZM20,11.82c0,.26-.15.34-.38.34h-.72l0,0v-.6l0,0h.72c.23,0,.38.08.38.34m.53,0c0-.53-.38-.79-.91-.79H18.42l0,0v2.57l0,0h.45l0,0v-1l0,0h.72c.53,0,.91-.27.91-.79m-3.29.79,0,0H16.6l0,0,.34-.91h0Zm.79,1v-.38l-.87-2.19,0,0h-.49l0,0-.87,2.19v.38l0,0h.34l0,0,.19-.49.08,0h.95l.08,0,.19.49,0,0H18Zm-2.15-2.19v-.38l0,0H13.77l0,0v.38l0,0h.76l0,0v2.12l0,0h.45l0,0V11.51l0,0h.76Z" fill="#231f20"/><text transform="translate(5.12 13.71)" font-size="3.88" fill="#231f20" font-family="Knockout-30JuniorWelterwt, Knockout"><tspan letter-spacing="-0.02em">2</tspan><tspan x="1.69" y="0">4</tspan></text><path d="M65.78,18.09c0,.6-.19.87-.72.87h-.34l0,0V17.26l0,0h.34c.53,0,.72.27.72.87m.53,0c0-.83-.34-1.32-1.29-1.32H64.2l0,0v2.57l0,0H65c.95,0,1.29-.49,1.29-1.32m-3.06-.53c0,.27-.15.34-.38.34h-.72l0,0v-.6l0,0h.72c.23,0,.38.08.38.34m.53,0c0-.53-.38-.79-.91-.79H61.63l0,0v2.57l0,0h.45l0,0v-1l0,0h.38l.08,0,.76,1,.08,0h.23l0,0V19l-.49-.64v0a.75.75,0,0,0,.57-.76m-3.29.79,0,0h-.64l0,0,.34-.91h0Zm.79,1V19l-.87-2.19,0,0h-.49l0,0L59,19v.38l0,0h.34l0,0,.19-.49.08,0h.95l.08,0,.19.49,0,0h.34Zm-2.19-2.19v-.38l0,0h-.26l-.08,0-.6,1H58l-.6-1-.08,0h-.26l0,0v.38l.76,1.25v.95l0,0h.45l0,0v-.95Zm-2.31,2.19V19l0,0H55.5l0,0v-.61l0,0h1.17l0,0v-.38l0,0H55.5l0,0v-.53l0,0h1.25l0,0v-.38l0,0H55l0,0v2.57l0,0h1.78Zm-4.61-2.57v2.57l0,0h.45l0,0V17.64h0l1,1.74.08,0h.53l0,0V16.81l0,0h-.45l0,0v1.74h0l-1-1.74-.08,0h-.53Zm-.53,2.57V16.81l0,0h-.45l0,0v2.57l0,0h.45Zm-.87-2.19v-.38l0,0H50.4l0,0-.68,1.85h0L49,16.81l0,0h-.34l0,0v.38l.83,2.19,0,0h.49l0,0Zm-3.25,1.47c0-.53-.42-.76-.94-.83s-.68-.15-.68-.38.11-.27.45-.27.53.11.53.34l0,0h.45l0,0c0-.45-.3-.79-1-.79s-1,.34-1,.72c0,.53.42.72.94.79s.68.15.68.42-.19.34-.53.34-.61-.15-.61-.42l0,0h-.45l0,0c0,.49.34.87,1.1.87s1.1-.38,1.1-.79M45,19.38V19l0,0H43.75l0,0v-.61l0,0h1.17l0,0v-.38l0,0H43.75l0,0v-.53l0,0H45l0,0v-.38l0,0H43.22l0,0v2.57l0,0H45Zm-2.31,0V18l0,0H41.52l0,0v.38l0,0h.64l0,0c0,.3-.19.53-.61.53s-.76-.38-.76-.91.26-.91.76-.91a.57.57,0,0,1,.61.34l0,0h.45l0,0a1,1,0,0,0-1.13-.79,1.25,1.25,0,0,0-1.28,1.36,1.24,1.24,0,0,0,1.25,1.36.88.88,0,0,0,.68-.27h0l0,.19,0,0h.34Zm-5-2.57v2.57l0,0h.45l0,0V17.64h0l1,1.74.08,0h.53l0,0V16.81l0,0h-.45l0,0v1.74h0l-1-1.74-.08,0h-.53Zm-1.1,1.55,0,0h-.64l0,0,.34-.91h0Zm.79,1V19l-.87-2.19,0,0H36l0,0L35.09,19v.38l0,0h.34l0,0,.19-.49.08,0h.95l.07,0,.19.49,0,0h.34Zm-3-1.81c0,.27-.15.34-.38.34h-.72l0,0v-.6l0,0H34c.23,0,.38.08.38.34m.53,0c0-.53-.38-.79-.91-.79H32.78l0,0v2.57l0,0h.45l0,0v-1l0,0h.38l.08,0,.76,1,.08,0h.23l0,0V19l-.49-.64v0a.75.75,0,0,0,.57-.76m-3.4-.38v-.38l0,0h-.27l-.07,0-.61,1h-.08l-.6-1-.08,0h-.26l0,0v.38l.76,1.25v.95l0,0h.45l0,0v-.95Zm-2.19,0v-.38l0,0H27.19l0,0v.38l0,0h.76l0,0v2.12l0,0h.45l0,0V17.26l0,0h.76Zm-2.34,0v-.38l0,0h-1.7l0,0v2.57l0,0h.45l0,0v-1l0,0h1.1l0,0v-.38l0,0h-1.1l0,0v-.57l0,0H27Zm-2.15.91a1.29,1.29,0,1,0-2.57,0,1.29,1.29,0,1,0,2.57,0m-.53,0c0,.53-.26.91-.76.91s-.76-.38-.76-.91.27-.91.76-.91.76.38.76.91m-2.08,1.29V19l0,0H21l0,0V16.81l0,0H20.5l0,0v2.57l0,0h1.7Zm-2.95-2.19v-.38l0,0H17.13l0,0v.38l0,0h.76l0,0v2.12l0,0h.45l0,0V17.26l0,0h.76Zm-2.49,2.19V16.81l0,0h-.57l0,0-.76,1.85h0l-.76-1.85,0,0H14l0,0v2.57l0,0h.45l0,0V17.91h0l.6,1.47,0,0h.42l0,0,.61-1.47h0v1.47l0,0h.45Z" fill="#231f20"/><text transform="translate(5.12 19.46)" font-size="3.88" fill="#231f20" font-family="Knockout-30JuniorWelterwt, Knockout">43</text></g></g></svg>