solid Object01
  facet normal -2.476918e-002 1.563863e-001 9.873853e-001
    outer loop
      vertex -2.081673e-001 4.163963e-002 2.942324e+001
      vertex -2.081677e-001 9.133923e+000 2.798317e+001
      vertex -3.017838e+000 8.688914e+000 2.798317e+001
    endloop
  endfacet
  facet normal -7.188293e-002 1.410782e-001 9.873853e-001
    outer loop
      vertex -2.081673e-001 4.163963e-002 2.942324e+001
      vertex -3.017838e+000 8.688914e+000 2.798317e+001
      vertex -5.552477e+000 7.397451e+000 2.798317e+001
    endloop
  endfacet
  facet normal -1.119603e-001 1.119603e-001 9.873853e-001
    outer loop
      vertex -2.081673e-001 4.163963e-002 2.942324e+001
      vertex -5.552477e+000 7.397451e+000 2.798317e+001
      vertex -7.563979e+000 5.385949e+000 2.798317e+001
    endloop
  endfacet
  facet normal -1.410781e-001 7.188291e-002 9.873853e-001
    outer loop
      vertex -2.081673e-001 4.163963e-002 2.942324e+001
      vertex -7.563979e+000 5.385949e+000 2.798317e+001
      vertex -8.855443e+000 2.851308e+000 2.798317e+001
    endloop
  endfacet
  facet normal -1.563863e-001 2.476910e-002 9.873853e-001
    outer loop
      vertex -2.081673e-001 4.163963e-002 2.942324e+001
      vertex -8.855443e+000 2.851308e+000 2.798317e+001
      vertex -9.300450e+000 4.163667e-002 2.798317e+001
    endloop
  endfacet
  facet normal -1.563863e-001 -2.476920e-002 9.873853e-001
    outer loop
      vertex -2.081673e-001 4.163963e-002 2.942324e+001
      vertex -9.300450e+000 4.163667e-002 2.798317e+001
      vertex -8.855441e+000 -2.768034e+000 2.798317e+001
    endloop
  endfacet
  facet normal -1.410781e-001 -7.188302e-002 9.873853e-001
    outer loop
      vertex -2.081673e-001 4.163963e-002 2.942324e+001
      vertex -8.855441e+000 -2.768034e+000 2.798317e+001
      vertex -7.563975e+000 -5.302674e+000 2.798317e+001
    endloop
  endfacet
  facet normal -1.119602e-001 -1.119603e-001 9.873853e-001
    outer loop
      vertex -2.081673e-001 4.163963e-002 2.942324e+001
      vertex -7.563975e+000 -5.302674e+000 2.798317e+001
      vertex -5.552472e+000 -7.314176e+000 2.798317e+001
    endloop
  endfacet
  facet normal -7.188282e-002 -1.410782e-001 9.873853e-001
    outer loop
      vertex -2.081673e-001 4.163963e-002 2.942324e+001
      vertex -5.552472e+000 -7.314176e+000 2.798317e+001
      vertex -3.017830e+000 -8.605639e+000 2.798317e+001
    endloop
  endfacet
  facet normal -2.476898e-002 -1.563864e-001 9.873853e-001
    outer loop
      vertex -2.081673e-001 4.163963e-002 2.942324e+001
      vertex -3.017830e+000 -8.605639e+000 2.798317e+001
      vertex -2.081585e-001 -9.050644e+000 2.798317e+001
    endloop
  endfacet
  facet normal 2.476932e-002 -1.563863e-001 9.873853e-001
    outer loop
      vertex -2.081673e-001 4.163963e-002 2.942324e+001
      vertex -2.081585e-001 -9.050644e+000 2.798317e+001
      vertex 2.601512e+000 -8.605633e+000 2.798317e+001
    endloop
  endfacet
  facet normal 7.188305e-002 -1.410781e-001 9.873853e-001
    outer loop
      vertex -2.081673e-001 4.163963e-002 2.942324e+001
      vertex 2.601512e+000 -8.605633e+000 2.798317e+001
      vertex 5.136152e+000 -7.314166e+000 2.798317e+001
    endloop
  endfacet
  facet normal 1.119604e-001 -1.119601e-001 9.873853e-001
    outer loop
      vertex -2.081673e-001 4.163963e-002 2.942324e+001
      vertex 5.136152e+000 -7.314166e+000 2.798317e+001
      vertex 7.147652e+000 -5.302660e+000 2.798317e+001
    endloop
  endfacet
  facet normal 1.410783e-001 -7.188269e-002 9.873853e-001
    outer loop
      vertex -2.081673e-001 4.163963e-002 2.942324e+001
      vertex 7.147652e+000 -5.302660e+000 2.798317e+001
      vertex 8.439112e+000 -2.768018e+000 2.798317e+001
    endloop
  endfacet
  facet normal 1.563864e-001 -2.476895e-002 9.873853e-001
    outer loop
      vertex -2.081673e-001 4.163963e-002 2.942324e+001
      vertex 8.439112e+000 -2.768018e+000 2.798317e+001
      vertex 8.884116e+000 4.165423e-002 2.798317e+001
    endloop
  endfacet
  facet normal 1.563863e-001 2.476943e-002 9.873853e-001
    outer loop
      vertex -2.081673e-001 4.163963e-002 2.942324e+001
      vertex 8.884116e+000 4.165423e-002 2.798317e+001
      vertex 8.439103e+000 2.851325e+000 2.798317e+001
    endloop
  endfacet
  facet normal 1.410780e-001 7.188318e-002 9.873853e-001
    outer loop
      vertex -2.081673e-001 4.163963e-002 2.942324e+001
      vertex 8.439103e+000 2.851325e+000 2.798317e+001
      vertex 7.147635e+000 5.385963e+000 2.798317e+001
    endloop
  endfacet
  facet normal 1.119600e-001 1.119605e-001 9.873853e-001
    outer loop
      vertex -2.081673e-001 4.163963e-002 2.942324e+001
      vertex 7.147635e+000 5.385963e+000 2.798317e+001
      vertex 5.136128e+000 7.397462e+000 2.798317e+001
    endloop
  endfacet
  facet normal 7.188264e-002 1.410783e-001 9.873853e-001
    outer loop
      vertex -2.081673e-001 4.163963e-002 2.942324e+001
      vertex 5.136128e+000 7.397462e+000 2.798317e+001
      vertex 2.601484e+000 8.688921e+000 2.798317e+001
    endloop
  endfacet
  facet normal 2.476897e-002 1.563863e-001 9.873853e-001
    outer loop
      vertex -2.081673e-001 4.163963e-002 2.942324e+001
      vertex 2.601484e+000 8.688921e+000 2.798317e+001
      vertex -2.081677e-001 9.133923e+000 2.798317e+001
    endloop
  endfacet
  facet normal -7.171997e-002 4.528215e-001 8.887119e-001
    outer loop
      vertex -2.081677e-001 9.133923e+000 2.798317e+001
      vertex -2.081681e-001 1.733619e+001 2.380391e+001
      vertex -5.552477e+000 1.648973e+001 2.380391e+001
    endloop
  endfacet
  facet normal -7.171994e-002 4.528216e-001 8.887119e-001
    outer loop
      vertex -2.081677e-001 9.133923e+000 2.798317e+001
      vertex -5.552477e+000 1.648973e+001 2.380391e+001
      vertex -3.017838e+000 8.688914e+000 2.798317e+001
    endloop
  endfacet
  facet normal -2.081392e-001 4.084963e-001 8.887119e-001
    outer loop
      vertex -3.017838e+000 8.688914e+000 2.798317e+001
      vertex -5.552477e+000 1.648973e+001 2.380391e+001
      vertex -1.037365e+001 1.403322e+001 2.380391e+001
    endloop
  endfacet
  facet normal -2.081392e-001 4.084962e-001 8.887119e-001
    outer loop
      vertex -3.017838e+000 8.688914e+000 2.798317e+001
      vertex -1.037365e+001 1.403322e+001 2.380391e+001
      vertex -5.552477e+000 7.397451e+000 2.798317e+001
    endloop
  endfacet
  facet normal -3.241844e-001 3.241845e-001 8.887119e-001
    outer loop
      vertex -5.552477e+000 7.397451e+000 2.798317e+001
      vertex -1.037365e+001 1.403322e+001 2.380391e+001
      vertex -1.419975e+001 1.020712e+001 2.380391e+001
    endloop
  endfacet
  facet normal -3.241844e-001 3.241844e-001 8.887119e-001
    outer loop
      vertex -5.552477e+000 7.397451e+000 2.798317e+001
      vertex -1.419975e+001 1.020712e+001 2.380391e+001
      vertex -7.563979e+000 5.385949e+000 2.798317e+001
    endloop
  endfacet
  facet normal -4.084961e-001 2.081392e-001 8.887120e-001
    outer loop
      vertex -7.563979e+000 5.385949e+000 2.798317e+001
      vertex -1.419975e+001 1.020712e+001 2.380391e+001
      vertex -1.665626e+001 5.385946e+000 2.380391e+001
    endloop
  endfacet
  facet normal -4.084962e-001 2.081391e-001 8.887120e-001
    outer loop
      vertex -7.563979e+000 5.385949e+000 2.798317e+001
      vertex -1.665626e+001 5.385946e+000 2.380391e+001
      vertex -8.855443e+000 2.851308e+000 2.798317e+001
    endloop
  endfacet
  facet normal -4.528215e-001 7.171974e-002 8.887120e-001
    outer loop
      vertex -8.855443e+000 2.851308e+000 2.798317e+001
      vertex -1.665626e+001 5.385946e+000 2.380391e+001
      vertex -1.750272e+001 4.163399e-002 2.380391e+001
    endloop
  endfacet
  facet normal -4.528215e-001 7.171974e-002 8.887120e-001
    outer loop
      vertex -8.855443e+000 2.851308e+000 2.798317e+001
      vertex -1.750272e+001 4.163399e-002 2.380391e+001
      vertex -9.300450e+000 4.163667e-002 2.798317e+001
    endloop
  endfacet
  facet normal -4.528215e-001 -7.172010e-002 8.887120e-001
    outer loop
      vertex -9.300450e+000 4.163667e-002 2.798317e+001
      vertex -1.750272e+001 4.163399e-002 2.380391e+001
      vertex -1.665626e+001 -5.302677e+000 2.380391e+001
    endloop
  endfacet
  facet normal -4.528215e-001 -7.172004e-002 8.887119e-001
    outer loop
      vertex -9.300450e+000 4.163667e-002 2.798317e+001
      vertex -1.665626e+001 -5.302677e+000 2.380391e+001
      vertex -8.855441e+000 -2.768034e+000 2.798317e+001
    endloop
  endfacet
  facet normal -4.084961e-001 -2.081394e-001 8.887119e-001
    outer loop
      vertex -8.855441e+000 -2.768034e+000 2.798317e+001
      vertex -1.665626e+001 -5.302677e+000 2.380391e+001
      vertex -1.419974e+001 -1.012385e+001 2.380391e+001
    endloop
  endfacet
  facet normal -4.084960e-001 -2.081395e-001 8.887120e-001
    outer loop
      vertex -8.855441e+000 -2.768034e+000 2.798317e+001
      vertex -1.419974e+001 -1.012385e+001 2.380391e+001
      vertex -7.563975e+000 -5.302674e+000 2.798317e+001
    endloop
  endfacet
  facet normal -3.241842e-001 -3.241845e-001 8.887120e-001
    outer loop
      vertex -7.563975e+000 -5.302674e+000 2.798317e+001
      vertex -1.419974e+001 -1.012385e+001 2.380391e+001
      vertex -1.037364e+001 -1.394995e+001 2.380391e+001
    endloop
  endfacet
  facet normal -3.241842e-001 -3.241845e-001 8.887120e-001
    outer loop
      vertex -7.563975e+000 -5.302674e+000 2.798317e+001
      vertex -1.037364e+001 -1.394995e+001 2.380391e+001
      vertex -5.552472e+000 -7.314176e+000 2.798317e+001
    endloop
  endfacet
  facet normal -2.081389e-001 -4.084963e-001 8.887120e-001
    outer loop
      vertex -5.552472e+000 -7.314176e+000 2.798317e+001
      vertex -1.037364e+001 -1.394995e+001 2.380391e+001
      vertex -5.552463e+000 -1.640646e+001 2.380391e+001
    endloop
  endfacet
  facet normal -2.081390e-001 -4.084963e-001 8.887119e-001
    outer loop
      vertex -5.552472e+000 -7.314176e+000 2.798317e+001
      vertex -5.552463e+000 -1.640646e+001 2.380391e+001
      vertex -3.017830e+000 -8.605639e+000 2.798317e+001
    endloop
  endfacet
  facet normal -7.171945e-002 -4.528216e-001 8.887120e-001
    outer loop
      vertex -3.017830e+000 -8.605639e+000 2.798317e+001
      vertex -5.552463e+000 -1.640646e+001 2.380391e+001
      vertex -2.081506e-001 -1.725291e+001 2.380391e+001
    endloop
  endfacet
  facet normal -7.171943e-002 -4.528216e-001 8.887119e-001
    outer loop
      vertex -3.017830e+000 -8.605639e+000 2.798317e+001
      vertex -2.081506e-001 -1.725291e+001 2.380391e+001
      vertex -2.081585e-001 -9.050644e+000 2.798317e+001
    endloop
  endfacet
  facet normal 7.172025e-002 -4.528214e-001 8.887119e-001
    outer loop
      vertex -2.081585e-001 -9.050644e+000 2.798317e+001
      vertex -2.081506e-001 -1.725291e+001 2.380391e+001
      vertex 5.136160e+000 -1.640645e+001 2.380391e+001
    endloop
  endfacet
  facet normal 7.172035e-002 -4.528214e-001 8.887120e-001
    outer loop
      vertex -2.081585e-001 -9.050644e+000 2.798317e+001
      vertex 5.136160e+000 -1.640645e+001 2.380391e+001
      vertex 2.601512e+000 -8.605633e+000 2.798317e+001
    endloop
  endfacet
  facet normal 2.081397e-001 -4.084959e-001 8.887120e-001
    outer loop
      vertex 2.601512e+000 -8.605633e+000 2.798317e+001
      vertex 5.136160e+000 -1.640645e+001 2.380391e+001
      vertex 9.957331e+000 -1.394993e+001 2.380391e+001
    endloop
  endfacet
  facet normal 2.081396e-001 -4.084959e-001 8.887120e-001
    outer loop
      vertex 2.601512e+000 -8.605633e+000 2.798317e+001
      vertex 9.957331e+000 -1.394993e+001 2.380391e+001
      vertex 5.136152e+000 -7.314166e+000 2.798317e+001
    endloop
  endfacet
  facet normal 3.241848e-001 -3.241840e-001 8.887119e-001
    outer loop
      vertex 5.136152e+000 -7.314166e+000 2.798317e+001
      vertex 9.957331e+000 -1.394993e+001 2.380391e+001
      vertex 1.378343e+001 -1.012382e+001 2.380391e+001
    endloop
  endfacet
  facet normal 3.241849e-001 -3.241839e-001 8.887119e-001
    outer loop
      vertex 5.136152e+000 -7.314166e+000 2.798317e+001
      vertex 1.378343e+001 -1.012382e+001 2.380391e+001
      vertex 7.147652e+000 -5.302660e+000 2.798317e+001
    endloop
  endfacet
  facet normal 4.084965e-001 -2.081386e-001 8.887119e-001
    outer loop
      vertex 7.147652e+000 -5.302660e+000 2.798317e+001
      vertex 1.378343e+001 -1.012382e+001 2.380391e+001
      vertex 1.623993e+001 -5.302645e+000 2.380391e+001
    endloop
  endfacet
  facet normal 4.084965e-001 -2.081386e-001 8.887120e-001
    outer loop
      vertex 7.147652e+000 -5.302660e+000 2.798317e+001
      vertex 1.623993e+001 -5.302645e+000 2.380391e+001
      vertex 8.439112e+000 -2.768018e+000 2.798317e+001
    endloop
  endfacet
  facet normal 4.528216e-001 -7.171913e-002 8.887120e-001
    outer loop
      vertex 8.439112e+000 -2.768018e+000 2.798317e+001
      vertex 1.623993e+001 -5.302645e+000 2.380391e+001
      vertex 1.708638e+001 4.166739e-002 2.380391e+001
    endloop
  endfacet
  facet normal 4.528217e-001 -7.171929e-002 8.887119e-001
    outer loop
      vertex 8.439112e+000 -2.768018e+000 2.798317e+001
      vertex 1.708638e+001 4.166739e-002 2.380391e+001
      vertex 8.884116e+000 4.165423e-002 2.798317e+001
    endloop
  endfacet
  facet normal 4.528214e-001 7.172060e-002 8.887119e-001
    outer loop
      vertex 8.884116e+000 4.165423e-002 2.798317e+001
      vertex 1.708638e+001 4.166739e-002 2.380391e+001
      vertex 1.623992e+001 5.385978e+000 2.380391e+001
    endloop
  endfacet
  facet normal 4.528214e-001 7.172066e-002 8.887120e-001
    outer loop
      vertex 8.884116e+000 4.165423e-002 2.798317e+001
      vertex 1.623992e+001 5.385978e+000 2.380391e+001
      vertex 8.439103e+000 2.851325e+000 2.798317e+001
    endloop
  endfacet
  facet normal 4.084958e-001 2.081399e-001 8.887119e-001
    outer loop
      vertex 8.439103e+000 2.851325e+000 2.798317e+001
      vertex 1.623992e+001 5.385978e+000 2.380391e+001
      vertex 1.378340e+001 1.020715e+001 2.380391e+001
    endloop
  endfacet
  facet normal 4.084958e-001 2.081399e-001 8.887120e-001
    outer loop
      vertex 8.439103e+000 2.851325e+000 2.798317e+001
      vertex 1.378340e+001 1.020715e+001 2.380391e+001
      vertex 7.147635e+000 5.385963e+000 2.798317e+001
    endloop
  endfacet
  facet normal 3.241838e-001 3.241851e-001 8.887119e-001
    outer loop
      vertex 7.147635e+000 5.385963e+000 2.798317e+001
      vertex 1.378340e+001 1.020715e+001 2.380391e+001
      vertex 9.957285e+000 1.403324e+001 2.380391e+001
    endloop
  endfacet
  facet normal 3.241838e-001 3.241851e-001 8.887119e-001
    outer loop
      vertex 7.147635e+000 5.385963e+000 2.798317e+001
      vertex 9.957285e+000 1.403324e+001 2.380391e+001
      vertex 5.136128e+000 7.397462e+000 2.798317e+001
    endloop
  endfacet
  facet normal 2.081386e-001 4.084966e-001 8.887119e-001
    outer loop
      vertex 5.136128e+000 7.397462e+000 2.798317e+001
      vertex 9.957285e+000 1.403324e+001 2.380391e+001
      vertex 5.136107e+000 1.648974e+001 2.380391e+001
    endloop
  endfacet
  facet normal 2.081383e-001 4.084966e-001 8.887120e-001
    outer loop
      vertex 5.136128e+000 7.397462e+000 2.798317e+001
      vertex 5.136107e+000 1.648974e+001 2.380391e+001
      vertex 2.601484e+000 8.688921e+000 2.798317e+001
    endloop
  endfacet
  facet normal 7.171930e-002 4.528215e-001 8.887120e-001
    outer loop
      vertex 2.601484e+000 8.688921e+000 2.798317e+001
      vertex 5.136107e+000 1.648974e+001 2.380391e+001
      vertex -2.081681e-001 1.733619e+001 2.380391e+001
    endloop
  endfacet
  facet normal 7.171931e-002 4.528215e-001 8.887120e-001
    outer loop
      vertex 2.601484e+000 8.688921e+000 2.798317e+001
      vertex -2.081681e-001 1.733619e+001 2.380391e+001
      vertex -2.081677e-001 9.133923e+000 2.798317e+001
    endloop
  endfacet
  facet normal -1.112990e-001 7.027135e-001 7.027135e-001
    outer loop
      vertex -2.081681e-001 1.733619e+001 2.380391e+001
      vertex -2.081684e-001 2.384554e+001 1.729455e+001
      vertex -7.563979e+000 2.268050e+001 1.729455e+001
    endloop
  endfacet
  facet normal -1.112990e-001 7.027135e-001 7.027135e-001
    outer loop
      vertex -2.081681e-001 1.733619e+001 2.380391e+001
      vertex -7.563979e+000 2.268050e+001 1.729455e+001
      vertex -5.552477e+000 1.648973e+001 2.380391e+001
    endloop
  endfacet
  facet normal -3.230019e-001 6.339270e-001 7.027135e-001
    outer loop
      vertex -5.552477e+000 1.648973e+001 2.380391e+001
      vertex -7.563979e+000 2.268050e+001 1.729455e+001
      vertex -1.419975e+001 1.929940e+001 1.729455e+001
    endloop
  endfacet
  facet normal -3.230019e-001 6.339270e-001 7.027135e-001
    outer loop
      vertex -5.552477e+000 1.648973e+001 2.380391e+001
      vertex -1.419975e+001 1.929940e+001 1.729455e+001
      vertex -1.037365e+001 1.403322e+001 2.380391e+001
    endloop
  endfacet
  facet normal -5.030873e-001 5.030874e-001 7.027135e-001
    outer loop
      vertex -1.037365e+001 1.403322e+001 2.380391e+001
      vertex -1.419975e+001 1.929940e+001 1.729455e+001
      vertex -1.946593e+001 1.403322e+001 1.729455e+001
    endloop
  endfacet
  facet normal -5.030872e-001 5.030874e-001 7.027135e-001
    outer loop
      vertex -1.037365e+001 1.403322e+001 2.380391e+001
      vertex -1.946593e+001 1.403322e+001 1.729455e+001
      vertex -1.419975e+001 1.020712e+001 2.380391e+001
    endloop
  endfacet
  facet normal -6.339270e-001 3.230019e-001 7.027135e-001
    outer loop
      vertex -1.419975e+001 1.020712e+001 2.380391e+001
      vertex -1.946593e+001 1.403322e+001 1.729455e+001
      vertex -2.284703e+001 7.397446e+000 1.729455e+001
    endloop
  endfacet
  facet normal -6.339270e-001 3.230019e-001 7.027135e-001
    outer loop
      vertex -1.419975e+001 1.020712e+001 2.380391e+001
      vertex -2.284703e+001 7.397446e+000 1.729455e+001
      vertex -1.665626e+001 5.385946e+000 2.380391e+001
    endloop
  endfacet
  facet normal -7.027135e-001 1.112987e-001 7.027135e-001
    outer loop
      vertex -1.665626e+001 5.385946e+000 2.380391e+001
      vertex -2.284703e+001 7.397446e+000 1.729455e+001
      vertex -2.401207e+001 4.163187e-002 1.729455e+001
    endloop
  endfacet
  facet normal -7.027135e-001 1.112987e-001 7.027135e-001
    outer loop
      vertex -1.665626e+001 5.385946e+000 2.380391e+001
      vertex -2.401207e+001 4.163187e-002 1.729455e+001
      vertex -1.750272e+001 4.163399e-002 2.380391e+001
    endloop
  endfacet
  facet normal -7.027134e-001 -1.112993e-001 7.027135e-001
    outer loop
      vertex -1.750272e+001 4.163399e-002 2.380391e+001
      vertex -2.401207e+001 4.163187e-002 1.729455e+001
      vertex -2.284702e+001 -7.314182e+000 1.729455e+001
    endloop
  endfacet
  facet normal -7.027135e-001 -1.112992e-001 7.027135e-001
    outer loop
      vertex -1.750272e+001 4.163399e-002 2.380391e+001
      vertex -2.284702e+001 -7.314182e+000 1.729455e+001
      vertex -1.665626e+001 -5.302677e+000 2.380391e+001
    endloop
  endfacet
  facet normal -6.339269e-001 -3.230022e-001 7.027135e-001
    outer loop
      vertex -1.665626e+001 -5.302677e+000 2.380391e+001
      vertex -2.284702e+001 -7.314182e+000 1.729455e+001
      vertex -1.946592e+001 -1.394996e+001 1.729455e+001
    endloop
  endfacet
  facet normal -6.339268e-001 -3.230023e-001 7.027135e-001
    outer loop
      vertex -1.665626e+001 -5.302677e+000 2.380391e+001
      vertex -1.946592e+001 -1.394996e+001 1.729455e+001
      vertex -1.419974e+001 -1.012385e+001 2.380391e+001
    endloop
  endfacet
  facet normal -5.030870e-001 -5.030876e-001 7.027135e-001
    outer loop
      vertex -1.419974e+001 -1.012385e+001 2.380391e+001
      vertex -1.946592e+001 -1.394996e+001 1.729455e+001
      vertex -1.419974e+001 -1.921614e+001 1.729455e+001
    endloop
  endfacet
  facet normal -5.030871e-001 -5.030876e-001 7.027135e-001
    outer loop
      vertex -1.419974e+001 -1.012385e+001 2.380391e+001
      vertex -1.419974e+001 -1.921614e+001 1.729455e+001
      vertex -1.037364e+001 -1.394995e+001 2.380391e+001
    endloop
  endfacet
  facet normal -3.230015e-001 -6.339272e-001 7.027135e-001
    outer loop
      vertex -1.037364e+001 -1.394995e+001 2.380391e+001
      vertex -1.419974e+001 -1.921614e+001 1.729455e+001
      vertex -7.563960e+000 -2.259723e+001 1.729455e+001
    endloop
  endfacet
  facet normal -3.230014e-001 -6.339272e-001 7.027135e-001
    outer loop
      vertex -1.037364e+001 -1.394995e+001 2.380391e+001
      vertex -7.563960e+000 -2.259723e+001 1.729455e+001
      vertex -5.552463e+000 -1.640646e+001 2.380391e+001
    endloop
  endfacet
  facet normal -1.112982e-001 -7.027136e-001 7.027135e-001
    outer loop
      vertex -5.552463e+000 -1.640646e+001 2.380391e+001
      vertex -7.563960e+000 -2.259723e+001 1.729455e+001
      vertex -2.081443e-001 -2.376227e+001 1.729455e+001
    endloop
  endfacet
  facet normal -1.112982e-001 -7.027137e-001 7.027135e-001
    outer loop
      vertex -5.552463e+000 -1.640646e+001 2.380391e+001
      vertex -2.081443e-001 -2.376227e+001 1.729455e+001
      vertex -2.081506e-001 -1.725291e+001 2.380391e+001
    endloop
  endfacet
  facet normal 1.112996e-001 -7.027134e-001 7.027135e-001
    outer loop
      vertex -2.081506e-001 -1.725291e+001 2.380391e+001
      vertex -2.081443e-001 -2.376227e+001 1.729455e+001
      vertex 7.147669e+000 -2.259721e+001 1.729455e+001
    endloop
  endfacet
  facet normal 1.112995e-001 -7.027135e-001 7.027135e-001
    outer loop
      vertex -2.081506e-001 -1.725291e+001 2.380391e+001
      vertex 7.147669e+000 -2.259721e+001 1.729455e+001
      vertex 5.136160e+000 -1.640645e+001 2.380391e+001
    endloop
  endfacet
  facet normal 3.230026e-001 -6.339267e-001 7.027135e-001
    outer loop
      vertex 5.136160e+000 -1.640645e+001 2.380391e+001
      vertex 7.147669e+000 -2.259721e+001 1.729455e+001
      vertex 1.378344e+001 -1.921611e+001 1.729455e+001
    endloop
  endfacet
  facet normal 3.230027e-001 -6.339266e-001 7.027135e-001
    outer loop
      vertex 5.136160e+000 -1.640645e+001 2.380391e+001
      vertex 1.378344e+001 -1.921611e+001 1.729455e+001
      vertex 9.957331e+000 -1.394993e+001 2.380391e+001
    endloop
  endfacet
  facet normal 5.030881e-001 -5.030866e-001 7.027135e-001
    outer loop
      vertex 9.957331e+000 -1.394993e+001 2.380391e+001
      vertex 1.378344e+001 -1.921611e+001 1.729455e+001
      vertex 1.904961e+001 -1.394992e+001 1.729455e+001
    endloop
  endfacet
  facet normal 5.030881e-001 -5.030867e-001 7.027134e-001
    outer loop
      vertex 9.957331e+000 -1.394993e+001 2.380391e+001
      vertex 1.904961e+001 -1.394992e+001 1.729455e+001
      vertex 1.378343e+001 -1.012382e+001 2.380391e+001
    endloop
  endfacet
  facet normal 6.339275e-001 -3.230012e-001 7.027134e-001
    outer loop
      vertex 1.378343e+001 -1.012382e+001 2.380391e+001
      vertex 1.904961e+001 -1.394992e+001 1.729455e+001
      vertex 2.243070e+001 -7.314138e+000 1.729455e+001
    endloop
  endfacet
  facet normal 6.339275e-001 -3.230010e-001 7.027135e-001
    outer loop
      vertex 1.378343e+001 -1.012382e+001 2.380391e+001
      vertex 2.243070e+001 -7.314138e+000 1.729455e+001
      vertex 1.623993e+001 -5.302645e+000 2.380391e+001
    endloop
  endfacet
  facet normal 7.027137e-001 -1.112978e-001 7.027135e-001
    outer loop
      vertex 1.623993e+001 -5.302645e+000 2.380391e+001
      vertex 2.243070e+001 -7.314138e+000 1.729455e+001
      vertex 2.359574e+001 4.167784e-002 1.729455e+001
    endloop
  endfacet
  facet normal 7.027137e-001 -1.112977e-001 7.027135e-001
    outer loop
      vertex 1.623993e+001 -5.302645e+000 2.380391e+001
      vertex 2.359574e+001 4.167784e-002 1.729455e+001
      vertex 1.708638e+001 4.166739e-002 2.380391e+001
    endloop
  endfacet
  facet normal 7.027134e-001 1.113000e-001 7.027135e-001
    outer loop
      vertex 1.708638e+001 4.166739e-002 2.380391e+001
      vertex 2.359574e+001 4.167784e-002 1.729455e+001
      vertex 2.243068e+001 7.397491e+000 1.729455e+001
    endloop
  endfacet
  facet normal 7.027134e-001 1.113000e-001 7.027135e-001
    outer loop
      vertex 1.708638e+001 4.166739e-002 2.380391e+001
      vertex 2.243068e+001 7.397491e+000 1.729455e+001
      vertex 1.623992e+001 5.385978e+000 2.380391e+001
    endloop
  endfacet
  facet normal 6.339264e-001 3.230032e-001 7.027135e-001
    outer loop
      vertex 1.623992e+001 5.385978e+000 2.380391e+001
      vertex 2.243068e+001 7.397491e+000 1.729455e+001
      vertex 1.904957e+001 1.403326e+001 1.729455e+001
    endloop
  endfacet
  facet normal 6.339266e-001 3.230031e-001 7.027134e-001
    outer loop
      vertex 1.623992e+001 5.385978e+000 2.380391e+001
      vertex 1.904957e+001 1.403326e+001 1.729455e+001
      vertex 1.378340e+001 1.020715e+001 2.380391e+001
    endloop
  endfacet
  facet normal 5.030864e-001 5.030884e-001 7.027134e-001
    outer loop
      vertex 1.378340e+001 1.020715e+001 2.380391e+001
      vertex 1.904957e+001 1.403326e+001 1.729455e+001
      vertex 1.378338e+001 1.929943e+001 1.729455e+001
    endloop
  endfacet
  facet normal 5.030863e-001 5.030884e-001 7.027135e-001
    outer loop
      vertex 1.378340e+001 1.020715e+001 2.380391e+001
      vertex 1.378338e+001 1.929943e+001 1.729455e+001
      vertex 9.957285e+000 1.403324e+001 2.380391e+001
    endloop
  endfacet
  facet normal 3.230008e-001 6.339276e-001 7.027135e-001
    outer loop
      vertex 9.957285e+000 1.403324e+001 2.380391e+001
      vertex 1.378338e+001 1.929943e+001 1.729455e+001
      vertex 7.147596e+000 2.268052e+001 1.729455e+001
    endloop
  endfacet
  facet normal 3.230008e-001 6.339276e-001 7.027135e-001
    outer loop
      vertex 9.957285e+000 1.403324e+001 2.380391e+001
      vertex 7.147596e+000 2.268052e+001 1.729455e+001
      vertex 5.136107e+000 1.648974e+001 2.380391e+001
    endloop
  endfacet
  facet normal 1.112980e-001 7.027136e-001 7.027136e-001
    outer loop
      vertex 5.136107e+000 1.648974e+001 2.380391e+001
      vertex 7.147596e+000 2.268052e+001 1.729455e+001
      vertex -2.081684e-001 2.384554e+001 1.729455e+001
    endloop
  endfacet
  facet normal 1.112980e-001 7.027136e-001 7.027136e-001
    outer loop
      vertex 5.136107e+000 1.648974e+001 2.380391e+001
      vertex -2.081684e-001 2.384554e+001 1.729455e+001
      vertex -2.081681e-001 1.733619e+001 2.380391e+001
    endloop
  endfacet
  facet normal -1.397370e-001 8.822645e-001 4.495363e-001
    outer loop
      vertex -2.081684e-001 2.384554e+001 1.729455e+001
      vertex -2.081685e-001 2.802481e+001 9.092282e+000
      vertex -8.855443e+000 2.665521e+001 9.092282e+000
    endloop
  endfacet
  facet normal -1.397371e-001 8.822645e-001 4.495363e-001
    outer loop
      vertex -2.081684e-001 2.384554e+001 1.729455e+001
      vertex -8.855443e+000 2.665521e+001 9.092282e+000
      vertex -7.563979e+000 2.268050e+001 1.729455e+001
    endloop
  endfacet
  facet normal -4.055324e-001 7.959024e-001 4.495363e-001
    outer loop
      vertex -7.563979e+000 2.268050e+001 1.729455e+001
      vertex -8.855443e+000 2.665521e+001 9.092282e+000
      vertex -1.665626e+001 2.268050e+001 9.092282e+000
    endloop
  endfacet
  facet normal -4.055324e-001 7.959023e-001 4.495364e-001
    outer loop
      vertex -7.563979e+000 2.268050e+001 1.729455e+001
      vertex -1.665626e+001 2.268050e+001 9.092282e+000
      vertex -1.419975e+001 1.929940e+001 1.729455e+001
    endloop
  endfacet
  facet normal -6.316316e-001 6.316316e-001 4.495364e-001
    outer loop
      vertex -1.419975e+001 1.929940e+001 1.729455e+001
      vertex -1.665626e+001 2.268050e+001 9.092282e+000
      vertex -2.284703e+001 1.648973e+001 9.092282e+000
    endloop
  endfacet
  facet normal -6.316316e-001 6.316317e-001 4.495364e-001
    outer loop
      vertex -1.419975e+001 1.929940e+001 1.729455e+001
      vertex -2.284703e+001 1.648973e+001 9.092282e+000
      vertex -1.946593e+001 1.403322e+001 1.729455e+001
    endloop
  endfacet
  facet normal -7.959023e-001 4.055324e-001 4.495364e-001
    outer loop
      vertex -1.946593e+001 1.403322e+001 1.729455e+001
      vertex -2.284703e+001 1.648973e+001 9.092282e+000
      vertex -2.682175e+001 8.688909e+000 9.092282e+000
    endloop
  endfacet
  facet normal -7.959023e-001 4.055324e-001 4.495364e-001
    outer loop
      vertex -1.946593e+001 1.403322e+001 1.729455e+001
      vertex -2.682175e+001 8.688909e+000 9.092282e+000
      vertex -2.284703e+001 7.397446e+000 1.729455e+001
    endloop
  endfacet
  facet normal -8.822646e-001 1.397366e-001 4.495364e-001
    outer loop
      vertex -2.284703e+001 7.397446e+000 1.729455e+001
      vertex -2.682175e+001 8.688909e+000 9.092282e+000
      vertex -2.819134e+001 4.163051e-002 9.092282e+000
    endloop
  endfacet
  facet normal -8.822646e-001 1.397368e-001 4.495363e-001
    outer loop
      vertex -2.284703e+001 7.397446e+000 1.729455e+001
      vertex -2.819134e+001 4.163051e-002 9.092282e+000
      vertex -2.401207e+001 4.163187e-002 1.729455e+001
    endloop
  endfacet
  facet normal -8.822644e-001 -1.397374e-001 4.495363e-001
    outer loop
      vertex -2.401207e+001 4.163187e-002 1.729455e+001
      vertex -2.819134e+001 4.163051e-002 9.092282e+000
      vertex -2.682174e+001 -8.605647e+000 9.092282e+000
    endloop
  endfacet
  facet normal -8.822644e-001 -1.397375e-001 4.495364e-001
    outer loop
      vertex -2.401207e+001 4.163187e-002 1.729455e+001
      vertex -2.682174e+001 -8.605647e+000 9.092282e+000
      vertex -2.284702e+001 -7.314182e+000 1.729455e+001
    endloop
  endfacet
  facet normal -7.959021e-001 -4.055329e-001 4.495364e-001
    outer loop
      vertex -2.284702e+001 -7.314182e+000 1.729455e+001
      vertex -2.682174e+001 -8.605647e+000 9.092282e+000
      vertex -2.284702e+001 -1.640647e+001 9.092282e+000
    endloop
  endfacet
  facet normal -7.959022e-001 -4.055328e-001 4.495362e-001
    outer loop
      vertex -2.284702e+001 -7.314182e+000 1.729455e+001
      vertex -2.284702e+001 -1.640647e+001 9.092282e+000
      vertex -1.946592e+001 -1.394996e+001 1.729455e+001
    endloop
  endfacet
  facet normal -6.316314e-001 -6.316319e-001 4.495363e-001
    outer loop
      vertex -1.946592e+001 -1.394996e+001 1.729455e+001
      vertex -2.284702e+001 -1.640647e+001 9.092282e+000
      vertex -1.665625e+001 -2.259723e+001 9.092282e+000
    endloop
  endfacet
  facet normal -6.316312e-001 -6.316320e-001 4.495365e-001
    outer loop
      vertex -1.946592e+001 -1.394996e+001 1.729455e+001
      vertex -1.665625e+001 -2.259723e+001 9.092282e+000
      vertex -1.419974e+001 -1.921614e+001 1.729455e+001
    endloop
  endfacet
  facet normal -4.055316e-001 -7.959027e-001 4.495364e-001
    outer loop
      vertex -1.419974e+001 -1.921614e+001 1.729455e+001
      vertex -1.665625e+001 -2.259723e+001 9.092282e+000
      vertex -8.855420e+000 -2.657194e+001 9.092282e+000
    endloop
  endfacet
  facet normal -4.055320e-001 -7.959027e-001 4.495362e-001
    outer loop
      vertex -1.419974e+001 -1.921614e+001 1.729455e+001
      vertex -8.855420e+000 -2.657194e+001 9.092282e+000
      vertex -7.563960e+000 -2.259723e+001 1.729455e+001
    endloop
  endfacet
  facet normal -1.397363e-001 -8.822647e-001 4.495362e-001
    outer loop
      vertex -7.563960e+000 -2.259723e+001 1.729455e+001
      vertex -8.855420e+000 -2.657194e+001 9.092282e+000
      vertex -2.081403e-001 -2.794153e+001 9.092282e+000
    endloop
  endfacet
  facet normal -1.397361e-001 -8.822647e-001 4.495363e-001
    outer loop
      vertex -7.563960e+000 -2.259723e+001 1.729455e+001
      vertex -2.081403e-001 -2.794153e+001 9.092282e+000
      vertex -2.081443e-001 -2.376227e+001 1.729455e+001
    endloop
  endfacet
  facet normal 1.397378e-001 -8.822644e-001 4.495363e-001
    outer loop
      vertex -2.081443e-001 -2.376227e+001 1.729455e+001
      vertex -2.081403e-001 -2.794153e+001 9.092282e+000
      vertex 8.439137e+000 -2.657193e+001 9.092282e+000
    endloop
  endfacet
  facet normal 1.397379e-001 -8.822643e-001 4.495364e-001
    outer loop
      vertex -2.081443e-001 -2.376227e+001 1.729455e+001
      vertex 8.439137e+000 -2.657193e+001 9.092282e+000
      vertex 7.147669e+000 -2.259721e+001 1.729455e+001
    endloop
  endfacet
  facet normal 4.055335e-001 -7.959017e-001 4.495364e-001
    outer loop
      vertex 7.147669e+000 -2.259721e+001 1.729455e+001
      vertex 8.439137e+000 -2.657193e+001 9.092282e+000
      vertex 1.623995e+001 -2.259720e+001 9.092282e+000
    endloop
  endfacet
  facet normal 4.055333e-001 -7.959020e-001 4.495362e-001
    outer loop
      vertex 7.147669e+000 -2.259721e+001 1.729455e+001
      vertex 1.623995e+001 -2.259720e+001 9.092282e+000
      vertex 1.378344e+001 -1.921611e+001 1.729455e+001
    endloop
  endfacet
  facet normal 6.316325e-001 -6.316309e-001 4.495362e-001
    outer loop
      vertex 1.378344e+001 -1.921611e+001 1.729455e+001
      vertex 1.623995e+001 -2.259720e+001 9.092282e+000
      vertex 2.243071e+001 -1.640643e+001 9.092282e+000
    endloop
  endfacet
  facet normal 6.316326e-001 -6.316307e-001 4.495364e-001
    outer loop
      vertex 1.378344e+001 -1.921611e+001 1.729455e+001
      vertex 2.243071e+001 -1.640643e+001 9.092282e+000
      vertex 1.904961e+001 -1.394992e+001 1.729455e+001
    endloop
  endfacet
  facet normal 7.959029e-001 -4.055313e-001 4.495364e-001
    outer loop
      vertex 1.904961e+001 -1.394992e+001 1.729455e+001
      vertex 2.243071e+001 -1.640643e+001 9.092282e+000
      vertex 2.640542e+001 -8.605597e+000 9.092282e+000
    endloop
  endfacet
  facet normal 7.959028e-001 -4.055314e-001 4.495364e-001
    outer loop
      vertex 1.904961e+001 -1.394992e+001 1.729455e+001
      vertex 2.640542e+001 -8.605597e+000 9.092282e+000
      vertex 2.243070e+001 -7.314138e+000 1.729455e+001
    endloop
  endfacet
  facet normal 8.822647e-001 -1.397356e-001 4.495363e-001
    outer loop
      vertex 2.243070e+001 -7.314138e+000 1.729455e+001
      vertex 2.640542e+001 -8.605597e+000 9.092282e+000
      vertex 2.777500e+001 4.168455e-002 9.092282e+000
    endloop
  endfacet
  facet normal 8.822647e-001 -1.397356e-001 4.495363e-001
    outer loop
      vertex 2.243070e+001 -7.314138e+000 1.729455e+001
      vertex 2.777500e+001 4.168455e-002 9.092282e+000
      vertex 2.359574e+001 4.167784e-002 1.729455e+001
    endloop
  endfacet
  facet normal 8.822643e-001 1.397384e-001 4.495363e-001
    outer loop
      vertex 2.359574e+001 4.167784e-002 1.729455e+001
      vertex 2.777500e+001 4.168455e-002 9.092282e+000
      vertex 2.640539e+001 8.688960e+000 9.092282e+000
    endloop
  endfacet
  facet normal 8.822643e-001 1.397384e-001 4.495363e-001
    outer loop
      vertex 2.359574e+001 4.167784e-002 1.729455e+001
      vertex 2.640539e+001 8.688960e+000 9.092282e+000
      vertex 2.243068e+001 7.397491e+000 1.729455e+001
    endloop
  endfacet
  facet normal 7.959016e-001 4.055339e-001 4.495363e-001
    outer loop
      vertex 2.243068e+001 7.397491e+000 1.729455e+001
      vertex 2.640539e+001 8.688960e+000 9.092282e+000
      vertex 2.243066e+001 1.648977e+001 9.092282e+000
    endloop
  endfacet
  facet normal 7.959015e-001 4.055340e-001 4.495364e-001
    outer loop
      vertex 2.243068e+001 7.397491e+000 1.729455e+001
      vertex 2.243066e+001 1.648977e+001 9.092282e+000
      vertex 1.904957e+001 1.403326e+001 1.729455e+001
    endloop
  endfacet
  facet normal 6.316304e-001 6.316329e-001 4.495363e-001
    outer loop
      vertex 1.904957e+001 1.403326e+001 1.729455e+001
      vertex 2.243066e+001 1.648977e+001 9.092282e+000
      vertex 1.623988e+001 2.268053e+001 9.092282e+000
    endloop
  endfacet
  facet normal 6.316305e-001 6.316329e-001 4.495362e-001
    outer loop
      vertex 1.904957e+001 1.403326e+001 1.729455e+001
      vertex 1.623988e+001 2.268053e+001 9.092282e+000
      vertex 1.378338e+001 1.929943e+001 1.729455e+001
    endloop
  endfacet
  facet normal 4.055310e-001 7.959031e-001 4.495362e-001
    outer loop
      vertex 1.378338e+001 1.929943e+001 1.729455e+001
      vertex 1.623988e+001 2.268053e+001 9.092282e+000
      vertex 8.439052e+000 2.665523e+001 9.092282e+000
    endloop
  endfacet
  facet normal 4.055310e-001 7.959031e-001 4.495363e-001
    outer loop
      vertex 1.378338e+001 1.929943e+001 1.729455e+001
      vertex 8.439052e+000 2.665523e+001 9.092282e+000
      vertex 7.147596e+000 2.268052e+001 1.729455e+001
    endloop
  endfacet
  facet normal 1.397360e-001 8.822647e-001 4.495363e-001
    outer loop
      vertex 7.147596e+000 2.268052e+001 1.729455e+001
      vertex 8.439052e+000 2.665523e+001 9.092282e+000
      vertex -2.081685e-001 2.802481e+001 9.092282e+000
    endloop
  endfacet
  facet normal 1.397359e-001 8.822647e-001 4.495364e-001
    outer loop
      vertex 7.147596e+000 2.268052e+001 1.729455e+001
      vertex -2.081685e-001 2.802481e+001 9.092282e+000
      vertex -2.081684e-001 2.384554e+001 1.729455e+001
    endloop
  endfacet
  facet normal -1.545549e-001 9.758205e-001 1.545547e-001
    outer loop
      vertex -2.081685e-001 2.802481e+001 9.092282e+000
      vertex -2.081686e-001 2.946488e+001 -1.286131e-006
      vertex -9.300450e+000 2.802481e+001 -1.286131e-006
    endloop
  endfacet
  facet normal -1.545549e-001 9.758205e-001 1.545547e-001
    outer loop
      vertex -2.081685e-001 2.802481e+001 9.092282e+000
      vertex -9.300450e+000 2.802481e+001 -1.286131e-006
      vertex -8.855443e+000 2.665521e+001 9.092282e+000
    endloop
  endfacet
  facet normal -4.485354e-001 8.803005e-001 1.545546e-001
    outer loop
      vertex -8.855443e+000 2.665521e+001 9.092282e+000
      vertex -9.300450e+000 2.802481e+001 -1.286131e-006
      vertex -1.750272e+001 2.384554e+001 -1.286131e-006
    endloop
  endfacet
  facet normal -4.485354e-001 8.803005e-001 1.545546e-001
    outer loop
      vertex -8.855443e+000 2.665521e+001 9.092282e+000
      vertex -1.750272e+001 2.384554e+001 -1.286131e-006
      vertex -1.665626e+001 2.268050e+001 9.092282e+000
    endloop
  endfacet
  facet normal -6.986102e-001 6.986104e-001 1.545546e-001
    outer loop
      vertex -1.665626e+001 2.268050e+001 9.092282e+000
      vertex -1.750272e+001 2.384554e+001 -1.286131e-006
      vertex -2.401208e+001 1.733619e+001 -1.286131e-006
    endloop
  endfacet
  facet normal -6.986104e-001 6.986104e-001 1.545548e-001
    outer loop
      vertex -1.665626e+001 2.268050e+001 9.092282e+000
      vertex -2.401208e+001 1.733619e+001 -1.286131e-006
      vertex -2.284703e+001 1.648973e+001 9.092282e+000
    endloop
  endfacet
  facet normal -8.803005e-001 4.485353e-001 1.545548e-001
    outer loop
      vertex -2.284703e+001 1.648973e+001 9.092282e+000
      vertex -2.401208e+001 1.733619e+001 -1.286131e-006
      vertex -2.819134e+001 9.133916e+000 -1.286131e-006
    endloop
  endfacet
  facet normal -8.803004e-001 4.485354e-001 1.545547e-001
    outer loop
      vertex -2.284703e+001 1.648973e+001 9.092282e+000
      vertex -2.819134e+001 9.133916e+000 -1.286131e-006
      vertex -2.682175e+001 8.688909e+000 9.092282e+000
    endloop
  endfacet
  facet normal -9.758206e-001 1.545544e-001 1.545546e-001
    outer loop
      vertex -2.682175e+001 8.688909e+000 9.092282e+000
      vertex -2.819134e+001 9.133916e+000 -1.286131e-006
      vertex -2.963141e+001 4.163004e-002 -1.286131e-006
    endloop
  endfacet
  facet normal -9.758206e-001 1.545544e-001 1.545547e-001
    outer loop
      vertex -2.682175e+001 8.688909e+000 9.092282e+000
      vertex -2.963141e+001 4.163004e-002 -1.286131e-006
      vertex -2.819134e+001 4.163051e-002 9.092282e+000
    endloop
  endfacet
  facet normal -9.758204e-001 -1.545552e-001 1.545547e-001
    outer loop
      vertex -2.819134e+001 4.163051e-002 9.092282e+000
      vertex -2.963141e+001 4.163004e-002 -1.286131e-006
      vertex -2.819133e+001 -9.050655e+000 -1.286131e-006
    endloop
  endfacet
  facet normal -9.758204e-001 -1.545552e-001 1.545547e-001
    outer loop
      vertex -2.819134e+001 4.163051e-002 9.092282e+000
      vertex -2.819133e+001 -9.050655e+000 -1.286131e-006
      vertex -2.682174e+001 -8.605647e+000 9.092282e+000
    endloop
  endfacet
  facet normal -8.803002e-001 -4.485359e-001 1.545547e-001
    outer loop
      vertex -2.682174e+001 -8.605647e+000 9.092282e+000
      vertex -2.819133e+001 -9.050655e+000 -1.286131e-006
      vertex -2.401206e+001 -1.725292e+001 -1.286131e-006
    endloop
  endfacet
  facet normal -8.803002e-001 -4.485359e-001 1.545547e-001
    outer loop
      vertex -2.682174e+001 -8.605647e+000 9.092282e+000
      vertex -2.401206e+001 -1.725292e+001 -1.286131e-006
      vertex -2.284702e+001 -1.640647e+001 9.092282e+000
    endloop
  endfacet
  facet normal -6.986099e-001 -6.986107e-001 1.545547e-001
    outer loop
      vertex -2.284702e+001 -1.640647e+001 9.092282e+000
      vertex -2.401206e+001 -1.725292e+001 -1.286131e-006
      vertex -1.750270e+001 -2.376228e+001 -1.286131e-006
    endloop
  endfacet
  facet normal -6.986102e-001 -6.986106e-001 1.545545e-001
    outer loop
      vertex -2.284702e+001 -1.640647e+001 9.092282e+000
      vertex -1.750270e+001 -2.376228e+001 -1.286131e-006
      vertex -1.665625e+001 -2.259723e+001 9.092282e+000
    endloop
  endfacet
  facet normal -4.485347e-001 -8.803008e-001 1.545545e-001
    outer loop
      vertex -1.665625e+001 -2.259723e+001 9.092282e+000
      vertex -1.750270e+001 -2.376228e+001 -1.286131e-006
      vertex -9.300426e+000 -2.794154e+001 -1.286131e-006
    endloop
  endfacet
  facet normal -4.485346e-001 -8.803009e-001 1.545546e-001
    outer loop
      vertex -1.665625e+001 -2.259723e+001 9.092282e+000
      vertex -9.300426e+000 -2.794154e+001 -1.286131e-006
      vertex -8.855420e+000 -2.657194e+001 9.092282e+000
    endloop
  endfacet
  facet normal -1.545540e-001 -9.758207e-001 1.545546e-001
    outer loop
      vertex -8.855420e+000 -2.657194e+001 9.092282e+000
      vertex -9.300426e+000 -2.794154e+001 -1.286131e-006
      vertex -2.081389e-001 -2.938161e+001 -1.286131e-006
    endloop
  endfacet
  facet normal -1.545539e-001 -9.758207e-001 1.545546e-001
    outer loop
      vertex -8.855420e+000 -2.657194e+001 9.092282e+000
      vertex -2.081389e-001 -2.938161e+001 -1.286131e-006
      vertex -2.081403e-001 -2.794153e+001 9.092282e+000
    endloop
  endfacet
  facet normal 1.545558e-001 -9.758204e-001 1.545547e-001
    outer loop
      vertex -2.081403e-001 -2.794153e+001 9.092282e+000
      vertex -2.081389e-001 -2.938161e+001 -1.286131e-006
      vertex 8.884147e+000 -2.794152e+001 -1.286131e-006
    endloop
  endfacet
  facet normal 1.545557e-001 -9.758204e-001 1.545545e-001
    outer loop
      vertex -2.081403e-001 -2.794153e+001 9.092282e+000
      vertex 8.884147e+000 -2.794152e+001 -1.286131e-006
      vertex 8.439137e+000 -2.657193e+001 9.092282e+000
    endloop
  endfacet
  facet normal 4.485364e-001 -8.802999e-001 1.545545e-001
    outer loop
      vertex 8.439137e+000 -2.657193e+001 9.092282e+000
      vertex 8.884147e+000 -2.794152e+001 -1.286131e-006
      vertex 1.708641e+001 -2.376225e+001 -1.286131e-006
    endloop
  endfacet
  facet normal 4.485367e-001 -8.802998e-001 1.545548e-001
    outer loop
      vertex 8.439137e+000 -2.657193e+001 9.092282e+000
      vertex 1.708641e+001 -2.376225e+001 -1.286131e-006
      vertex 1.623995e+001 -2.259720e+001 9.092282e+000
    endloop
  endfacet
  facet normal 6.986113e-001 -6.986094e-001 1.545547e-001
    outer loop
      vertex 1.623995e+001 -2.259720e+001 9.092282e+000
      vertex 1.708641e+001 -2.376225e+001 -1.286131e-006
      vertex 2.359576e+001 -1.725288e+001 -1.286131e-006
    endloop
  endfacet
  facet normal 6.986113e-001 -6.986095e-001 1.545547e-001
    outer loop
      vertex 1.623995e+001 -2.259720e+001 9.092282e+000
      vertex 2.359576e+001 -1.725288e+001 -1.286131e-006
      vertex 2.243071e+001 -1.640643e+001 9.092282e+000
    endloop
  endfacet
  facet normal 8.803011e-001 -4.485341e-001 1.545547e-001
    outer loop
      vertex 2.243071e+001 -1.640643e+001 9.092282e+000
      vertex 2.359576e+001 -1.725288e+001 -1.286131e-006
      vertex 2.777501e+001 -9.050602e+000 -1.286131e-006
    endloop
  endfacet
  facet normal 8.803011e-001 -4.485342e-001 1.545546e-001
    outer loop
      vertex 2.243071e+001 -1.640643e+001 9.092282e+000
      vertex 2.777501e+001 -9.050602e+000 -1.286131e-006
      vertex 2.640542e+001 -8.605597e+000 9.092282e+000
    endloop
  endfacet
  facet normal 9.758207e-001 -1.545534e-001 1.545546e-001
    outer loop
      vertex 2.640542e+001 -8.605597e+000 9.092282e+000
      vertex 2.777501e+001 -9.050602e+000 -1.286131e-006
      vertex 2.921508e+001 4.168686e-002 -1.286131e-006
    endloop
  endfacet
  facet normal 9.758208e-001 -1.545533e-001 1.545546e-001
    outer loop
      vertex 2.640542e+001 -8.605597e+000 9.092282e+000
      vertex 2.921508e+001 4.168686e-002 -1.286131e-006
      vertex 2.777500e+001 4.168455e-002 9.092282e+000
    endloop
  endfacet
  facet normal 9.758202e-001 1.545565e-001 1.545547e-001
    outer loop
      vertex 2.777500e+001 4.168455e-002 9.092282e+000
      vertex 2.921508e+001 4.168686e-002 -1.286131e-006
      vertex 2.777498e+001 9.133970e+000 -1.286131e-006
    endloop
  endfacet
  facet normal 9.758203e-001 1.545563e-001 1.545545e-001
    outer loop
      vertex 2.777500e+001 4.168455e-002 9.092282e+000
      vertex 2.777498e+001 9.133970e+000 -1.286131e-006
      vertex 2.640539e+001 8.688960e+000 9.092282e+000
    endloop
  endfacet
  facet normal 8.802996e-001 4.485371e-001 1.545546e-001
    outer loop
      vertex 2.640539e+001 8.688960e+000 9.092282e+000
      vertex 2.777498e+001 9.133970e+000 -1.286131e-006
      vertex 2.359571e+001 1.733623e+001 -1.286131e-006
    endloop
  endfacet
  facet normal 8.802996e-001 4.485371e-001 1.545545e-001
    outer loop
      vertex 2.640539e+001 8.688960e+000 9.092282e+000
      vertex 2.359571e+001 1.733623e+001 -1.286131e-006
      vertex 2.243066e+001 1.648977e+001 9.092282e+000
    endloop
  endfacet
  facet normal 6.986091e-001 6.986117e-001 1.545546e-001
    outer loop
      vertex 2.243066e+001 1.648977e+001 9.092282e+000
      vertex 2.359571e+001 1.733623e+001 -1.286131e-006
      vertex 1.708633e+001 2.384558e+001 -1.286131e-006
    endloop
  endfacet
  facet normal 6.986089e-001 6.986117e-001 1.545546e-001
    outer loop
      vertex 2.243066e+001 1.648977e+001 9.092282e+000
      vertex 1.708633e+001 2.384558e+001 -1.286131e-006
      vertex 1.623988e+001 2.268053e+001 9.092282e+000
    endloop
  endfacet
  facet normal 4.485339e-001 8.803012e-001 1.545547e-001
    outer loop
      vertex 1.623988e+001 2.268053e+001 9.092282e+000
      vertex 1.708633e+001 2.384558e+001 -1.286131e-006
      vertex 8.884056e+000 2.802483e+001 -1.286131e-006
    endloop
  endfacet
  facet normal 4.485338e-001 8.803012e-001 1.545547e-001
    outer loop
      vertex 1.623988e+001 2.268053e+001 9.092282e+000
      vertex 8.884056e+000 2.802483e+001 -1.286131e-006
      vertex 8.439052e+000 2.665523e+001 9.092282e+000
    endloop
  endfacet
  facet normal 1.545536e-001 9.758207e-001 1.545548e-001
    outer loop
      vertex 8.439052e+000 2.665523e+001 9.092282e+000
      vertex 8.884056e+000 2.802483e+001 -1.286131e-006
      vertex -2.081686e-001 2.946488e+001 -1.286131e-006
    endloop
  endfacet
  facet normal 1.545537e-001 9.758207e-001 1.545547e-001
    outer loop
      vertex 8.439052e+000 2.665523e+001 9.092282e+000
      vertex -2.081686e-001 2.946488e+001 -1.286131e-006
      vertex -2.081685e-001 2.802481e+001 9.092282e+000
    endloop
  endfacet
  facet normal -1.545549e-001 9.758205e-001 -1.545549e-001
    outer loop
      vertex -2.081686e-001 2.946488e+001 -1.286131e-006
      vertex -2.081685e-001 2.802481e+001 -9.092283e+000
      vertex -8.855442e+000 2.665521e+001 -9.092283e+000
    endloop
  endfacet
  facet normal -1.545549e-001 9.758205e-001 -1.545549e-001
    outer loop
      vertex -2.081686e-001 2.946488e+001 -1.286131e-006
      vertex -8.855442e+000 2.665521e+001 -9.092283e+000
      vertex -9.300450e+000 2.802481e+001 -1.286131e-006
    endloop
  endfacet
  facet normal -4.485354e-001 8.803004e-001 -1.545549e-001
    outer loop
      vertex -9.300450e+000 2.802481e+001 -1.286131e-006
      vertex -8.855442e+000 2.665521e+001 -9.092283e+000
      vertex -1.665626e+001 2.268050e+001 -9.092283e+000
    endloop
  endfacet
  facet normal -4.485354e-001 8.803004e-001 -1.545549e-001
    outer loop
      vertex -9.300450e+000 2.802481e+001 -1.286131e-006
      vertex -1.665626e+001 2.268050e+001 -9.092283e+000
      vertex -1.750272e+001 2.384554e+001 -1.286131e-006
    endloop
  endfacet
  facet normal -6.986102e-001 6.986104e-001 -1.545549e-001
    outer loop
      vertex -1.750272e+001 2.384554e+001 -1.286131e-006
      vertex -1.665626e+001 2.268050e+001 -9.092283e+000
      vertex -2.284703e+001 1.648973e+001 -9.092283e+000
    endloop
  endfacet
  facet normal -6.986102e-001 6.986104e-001 -1.545549e-001
    outer loop
      vertex -1.750272e+001 2.384554e+001 -1.286131e-006
      vertex -2.284703e+001 1.648973e+001 -9.092283e+000
      vertex -2.401208e+001 1.733619e+001 -1.286131e-006
    endloop
  endfacet
  facet normal -8.803005e-001 4.485353e-001 -1.545549e-001
    outer loop
      vertex -2.401208e+001 1.733619e+001 -1.286131e-006
      vertex -2.284703e+001 1.648973e+001 -9.092283e+000
      vertex -2.682174e+001 8.688908e+000 -9.092283e+000
    endloop
  endfacet
  facet normal -8.803005e-001 4.485353e-001 -1.545549e-001
    outer loop
      vertex -2.401208e+001 1.733619e+001 -1.286131e-006
      vertex -2.682174e+001 8.688908e+000 -9.092283e+000
      vertex -2.819134e+001 9.133916e+000 -1.286131e-006
    endloop
  endfacet
  facet normal -9.758205e-001 1.545544e-001 -1.545549e-001
    outer loop
      vertex -2.819134e+001 9.133916e+000 -1.286131e-006
      vertex -2.682174e+001 8.688908e+000 -9.092283e+000
      vertex -2.819134e+001 4.163051e-002 -9.092283e+000
    endloop
  endfacet
  facet normal -9.758205e-001 1.545544e-001 -1.545549e-001
    outer loop
      vertex -2.819134e+001 9.133916e+000 -1.286131e-006
      vertex -2.819134e+001 4.163051e-002 -9.092283e+000
      vertex -2.963141e+001 4.163004e-002 -1.286131e-006
    endloop
  endfacet
  facet normal -9.758204e-001 -1.545552e-001 -1.545549e-001
    outer loop
      vertex -2.963141e+001 4.163004e-002 -1.286131e-006
      vertex -2.819134e+001 4.163051e-002 -9.092283e+000
      vertex -2.682174e+001 -8.605647e+000 -9.092283e+000
    endloop
  endfacet
  facet normal -9.758204e-001 -1.545552e-001 -1.545549e-001
    outer loop
      vertex -2.963141e+001 4.163004e-002 -1.286131e-006
      vertex -2.682174e+001 -8.605647e+000 -9.092283e+000
      vertex -2.819133e+001 -9.050655e+000 -1.286131e-006
    endloop
  endfacet
  facet normal -8.803002e-001 -4.485358e-001 -1.545549e-001
    outer loop
      vertex -2.819133e+001 -9.050655e+000 -1.286131e-006
      vertex -2.682174e+001 -8.605647e+000 -9.092283e+000
      vertex -2.284702e+001 -1.640647e+001 -9.092283e+000
    endloop
  endfacet
  facet normal -8.803002e-001 -4.485359e-001 -1.545547e-001
    outer loop
      vertex -2.819133e+001 -9.050655e+000 -1.286131e-006
      vertex -2.284702e+001 -1.640647e+001 -9.092283e+000
      vertex -2.401206e+001 -1.725292e+001 -1.286131e-006
    endloop
  endfacet
  facet normal -6.986099e-001 -6.986108e-001 -1.545548e-001
    outer loop
      vertex -2.401206e+001 -1.725292e+001 -1.286131e-006
      vertex -2.284702e+001 -1.640647e+001 -9.092283e+000
      vertex -1.665625e+001 -2.259723e+001 -9.092283e+000
    endloop
  endfacet
  facet normal -6.986099e-001 -6.986108e-001 -1.545548e-001
    outer loop
      vertex -2.401206e+001 -1.725292e+001 -1.286131e-006
      vertex -1.665625e+001 -2.259723e+001 -9.092283e+000
      vertex -1.750270e+001 -2.376228e+001 -1.286131e-006
    endloop
  endfacet
  facet normal -4.485346e-001 -8.803008e-001 -1.545548e-001
    outer loop
      vertex -1.750270e+001 -2.376228e+001 -1.286131e-006
      vertex -1.665625e+001 -2.259723e+001 -9.092283e+000
      vertex -8.855419e+000 -2.657194e+001 -9.092283e+000
    endloop
  endfacet
  facet normal -4.485347e-001 -8.803008e-001 -1.545549e-001
    outer loop
      vertex -1.750270e+001 -2.376228e+001 -1.286131e-006
      vertex -8.855419e+000 -2.657194e+001 -9.092283e+000
      vertex -9.300426e+000 -2.794154e+001 -1.286131e-006
    endloop
  endfacet
  facet normal -1.545540e-001 -9.758206e-001 -1.545548e-001
    outer loop
      vertex -9.300426e+000 -2.794154e+001 -1.286131e-006
      vertex -8.855419e+000 -2.657194e+001 -9.092283e+000
      vertex -2.081403e-001 -2.794153e+001 -9.092283e+000
    endloop
  endfacet
  facet normal -1.545540e-001 -9.758206e-001 -1.545549e-001
    outer loop
      vertex -9.300426e+000 -2.794154e+001 -1.286131e-006
      vertex -2.081403e-001 -2.794153e+001 -9.092283e+000
      vertex -2.081389e-001 -2.938161e+001 -1.286131e-006
    endloop
  endfacet
  facet normal 1.545557e-001 -9.758204e-001 -1.545549e-001
    outer loop
      vertex -2.081389e-001 -2.938161e+001 -1.286131e-006
      vertex -2.081403e-001 -2.794153e+001 -9.092283e+000
      vertex 8.439137e+000 -2.657193e+001 -9.092283e+000
    endloop
  endfacet
  facet normal 1.545558e-001 -9.758204e-001 -1.545547e-001
    outer loop
      vertex -2.081389e-001 -2.938161e+001 -1.286131e-006
      vertex 8.439137e+000 -2.657193e+001 -9.092283e+000
      vertex 8.884147e+000 -2.794152e+001 -1.286131e-006
    endloop
  endfacet
  facet normal 4.485366e-001 -8.802998e-001 -1.545548e-001
    outer loop
      vertex 8.884147e+000 -2.794152e+001 -1.286131e-006
      vertex 8.439137e+000 -2.657193e+001 -9.092283e+000
      vertex 1.623995e+001 -2.259720e+001 -9.092283e+000
    endloop
  endfacet
  facet normal 4.485364e-001 -8.802999e-001 -1.545549e-001
    outer loop
      vertex 8.884147e+000 -2.794152e+001 -1.286131e-006
      vertex 1.623995e+001 -2.259720e+001 -9.092283e+000
      vertex 1.708641e+001 -2.376225e+001 -1.286131e-006
    endloop
  endfacet
  facet normal 6.986113e-001 -6.986094e-001 -1.545549e-001
    outer loop
      vertex 1.708641e+001 -2.376225e+001 -1.286131e-006
      vertex 1.623995e+001 -2.259720e+001 -9.092283e+000
      vertex 2.243071e+001 -1.640642e+001 -9.092283e+000
    endloop
  endfacet
  facet normal 6.986113e-001 -6.986094e-001 -1.545549e-001
    outer loop
      vertex 1.708641e+001 -2.376225e+001 -1.286131e-006
      vertex 2.243071e+001 -1.640642e+001 -9.092283e+000
      vertex 2.359576e+001 -1.725288e+001 -1.286131e-006
    endloop
  endfacet
  facet normal 8.803010e-001 -4.485342e-001 -1.545550e-001
    outer loop
      vertex 2.359576e+001 -1.725288e+001 -1.286131e-006
      vertex 2.243071e+001 -1.640642e+001 -9.092283e+000
      vertex 2.640542e+001 -8.605596e+000 -9.092283e+000
    endloop
  endfacet
  facet normal 8.803011e-001 -4.485341e-001 -1.545548e-001
    outer loop
      vertex 2.359576e+001 -1.725288e+001 -1.286131e-006
      vertex 2.640542e+001 -8.605596e+000 -9.092283e+000
      vertex 2.777501e+001 -9.050602e+000 -1.286131e-006
    endloop
  endfacet
  facet normal 9.758207e-001 -1.545533e-001 -1.545548e-001
    outer loop
      vertex 2.777501e+001 -9.050602e+000 -1.286131e-006
      vertex 2.640542e+001 -8.605596e+000 -9.092283e+000
      vertex 2.777500e+001 4.168455e-002 -9.092283e+000
    endloop
  endfacet
  facet normal 9.758207e-001 -1.545534e-001 -1.545549e-001
    outer loop
      vertex 2.777501e+001 -9.050602e+000 -1.286131e-006
      vertex 2.777500e+001 4.168455e-002 -9.092283e+000
      vertex 2.921508e+001 4.168686e-002 -1.286131e-006
    endloop
  endfacet
  facet normal 9.758202e-001 1.545563e-001 -1.545549e-001
    outer loop
      vertex 2.921508e+001 4.168686e-002 -1.286131e-006
      vertex 2.777500e+001 4.168455e-002 -9.092283e+000
      vertex 2.640539e+001 8.688960e+000 -9.092283e+000
    endloop
  endfacet
  facet normal 9.758202e-001 1.545565e-001 -1.545548e-001
    outer loop
      vertex 2.921508e+001 4.168686e-002 -1.286131e-006
      vertex 2.640539e+001 8.688960e+000 -9.092283e+000
      vertex 2.777498e+001 9.133970e+000 -1.286131e-006
    endloop
  endfacet
  facet normal 8.802996e-001 4.485370e-001 -1.545548e-001
    outer loop
      vertex 2.777498e+001 9.133970e+000 -1.286131e-006
      vertex 2.640539e+001 8.688960e+000 -9.092283e+000
      vertex 2.243066e+001 1.648977e+001 -9.092283e+000
    endloop
  endfacet
  facet normal 8.802996e-001 4.485371e-001 -1.545548e-001
    outer loop
      vertex 2.777498e+001 9.133970e+000 -1.286131e-006
      vertex 2.243066e+001 1.648977e+001 -9.092283e+000
      vertex 2.359571e+001 1.733623e+001 -1.286131e-006
    endloop
  endfacet
  facet normal 6.986089e-001 6.986119e-001 -1.545547e-001
    outer loop
      vertex 2.359571e+001 1.733623e+001 -1.286131e-006
      vertex 2.243066e+001 1.648977e+001 -9.092283e+000
      vertex 1.623988e+001 2.268053e+001 -9.092283e+000
    endloop
  endfacet
  facet normal 6.986090e-001 6.986117e-001 -1.545550e-001
    outer loop
      vertex 2.359571e+001 1.733623e+001 -1.286131e-006
      vertex 1.623988e+001 2.268053e+001 -9.092283e+000
      vertex 1.708633e+001 2.384558e+001 -1.286131e-006
    endloop
  endfacet
  facet normal 4.485338e-001 8.803012e-001 -1.545549e-001
    outer loop
      vertex 1.708633e+001 2.384558e+001 -1.286131e-006
      vertex 1.623988e+001 2.268053e+001 -9.092283e+000
      vertex 8.439051e+000 2.665523e+001 -9.092283e+000
    endloop
  endfacet
  facet normal 4.485338e-001 8.803012e-001 -1.545550e-001
    outer loop
      vertex 1.708633e+001 2.384558e+001 -1.286131e-006
      vertex 8.439051e+000 2.665523e+001 -9.092283e+000
      vertex 8.884056e+000 2.802483e+001 -1.286131e-006
    endloop
  endfacet
  facet normal 1.545537e-001 9.758206e-001 -1.545550e-001
    outer loop
      vertex 8.884056e+000 2.802483e+001 -1.286131e-006
      vertex 8.439051e+000 2.665523e+001 -9.092283e+000
      vertex -2.081685e-001 2.802481e+001 -9.092283e+000
    endloop
  endfacet
  facet normal 1.545536e-001 9.758207e-001 -1.545549e-001
    outer loop
      vertex 8.884056e+000 2.802483e+001 -1.286131e-006
      vertex -2.081685e-001 2.802481e+001 -9.092283e+000
      vertex -2.081686e-001 2.946488e+001 -1.286131e-006
    endloop
  endfacet
  facet normal -1.397371e-001 8.822646e-001 -4.495362e-001
    outer loop
      vertex -2.081685e-001 2.802481e+001 -9.092283e+000
      vertex -2.081684e-001 2.384554e+001 -1.729455e+001
      vertex -7.563979e+000 2.268050e+001 -1.729455e+001
    endloop
  endfacet
  facet normal -1.397371e-001 8.822646e-001 -4.495362e-001
    outer loop
      vertex -2.081685e-001 2.802481e+001 -9.092283e+000
      vertex -7.563979e+000 2.268050e+001 -1.729455e+001
      vertex -8.855442e+000 2.665521e+001 -9.092283e+000
    endloop
  endfacet
  facet normal -4.055325e-001 7.959024e-001 -4.495362e-001
    outer loop
      vertex -8.855442e+000 2.665521e+001 -9.092283e+000
      vertex -7.563979e+000 2.268050e+001 -1.729455e+001
      vertex -1.419975e+001 1.929940e+001 -1.729455e+001
    endloop
  endfacet
  facet normal -4.055324e-001 7.959024e-001 -4.495362e-001
    outer loop
      vertex -8.855442e+000 2.665521e+001 -9.092283e+000
      vertex -1.419975e+001 1.929940e+001 -1.729455e+001
      vertex -1.665626e+001 2.268050e+001 -9.092283e+000
    endloop
  endfacet
  facet normal -6.316316e-001 6.316317e-001 -4.495363e-001
    outer loop
      vertex -1.665626e+001 2.268050e+001 -9.092283e+000
      vertex -1.419975e+001 1.929940e+001 -1.729455e+001
      vertex -1.946593e+001 1.403322e+001 -1.729455e+001
    endloop
  endfacet
  facet normal -6.316316e-001 6.316317e-001 -4.495363e-001
    outer loop
      vertex -1.665626e+001 2.268050e+001 -9.092283e+000
      vertex -1.946593e+001 1.403322e+001 -1.729455e+001
      vertex -2.284703e+001 1.648973e+001 -9.092283e+000
    endloop
  endfacet
  facet normal -7.959024e-001 4.055324e-001 -4.495363e-001
    outer loop
      vertex -2.284703e+001 1.648973e+001 -9.092283e+000
      vertex -1.946593e+001 1.403322e+001 -1.729455e+001
      vertex -2.284703e+001 7.397446e+000 -1.729455e+001
    endloop
  endfacet
  facet normal -7.959024e-001 4.055323e-001 -4.495363e-001
    outer loop
      vertex -2.284703e+001 1.648973e+001 -9.092283e+000
      vertex -2.284703e+001 7.397446e+000 -1.729455e+001
      vertex -2.682174e+001 8.688908e+000 -9.092283e+000
    endloop
  endfacet
  facet normal -8.822646e-001 1.397367e-001 -4.495363e-001
    outer loop
      vertex -2.682174e+001 8.688908e+000 -9.092283e+000
      vertex -2.284703e+001 7.397446e+000 -1.729455e+001
      vertex -2.401207e+001 4.163187e-002 -1.729455e+001
    endloop
  endfacet
  facet normal -8.822646e-001 1.397367e-001 -4.495362e-001
    outer loop
      vertex -2.682174e+001 8.688908e+000 -9.092283e+000
      vertex -2.401207e+001 4.163187e-002 -1.729455e+001
      vertex -2.819134e+001 4.163051e-002 -9.092283e+000
    endloop
  endfacet
  facet normal -8.822645e-001 -1.397375e-001 -4.495362e-001
    outer loop
      vertex -2.819134e+001 4.163051e-002 -9.092283e+000
      vertex -2.401207e+001 4.163187e-002 -1.729455e+001
      vertex -2.284702e+001 -7.314182e+000 -1.729455e+001
    endloop
  endfacet
  facet normal -8.822645e-001 -1.397374e-001 -4.495362e-001
    outer loop
      vertex -2.819134e+001 4.163051e-002 -9.092283e+000
      vertex -2.284702e+001 -7.314182e+000 -1.729455e+001
      vertex -2.682174e+001 -8.605647e+000 -9.092283e+000
    endloop
  endfacet
  facet normal -7.959022e-001 -4.055328e-001 -4.495362e-001
    outer loop
      vertex -2.682174e+001 -8.605647e+000 -9.092283e+000
      vertex -2.284702e+001 -7.314182e+000 -1.729455e+001
      vertex -1.946592e+001 -1.394996e+001 -1.729455e+001
    endloop
  endfacet
  facet normal -7.959022e-001 -4.055328e-001 -4.495362e-001
    outer loop
      vertex -2.682174e+001 -8.605647e+000 -9.092283e+000
      vertex -1.946592e+001 -1.394996e+001 -1.729455e+001
      vertex -2.284702e+001 -1.640647e+001 -9.092283e+000
    endloop
  endfacet
  facet normal -6.316313e-001 -6.316320e-001 -4.495363e-001
    outer loop
      vertex -2.284702e+001 -1.640647e+001 -9.092283e+000
      vertex -1.946592e+001 -1.394996e+001 -1.729455e+001
      vertex -1.419974e+001 -1.921614e+001 -1.729455e+001
    endloop
  endfacet
  facet normal -6.316313e-001 -6.316320e-001 -4.495363e-001
    outer loop
      vertex -2.284702e+001 -1.640647e+001 -9.092283e+000
      vertex -1.419974e+001 -1.921614e+001 -1.729455e+001
      vertex -1.665625e+001 -2.259723e+001 -9.092283e+000
    endloop
  endfacet
  facet normal -4.055319e-001 -7.959026e-001 -4.495363e-001
    outer loop
      vertex -1.665625e+001 -2.259723e+001 -9.092283e+000
      vertex -1.419974e+001 -1.921614e+001 -1.729455e+001
      vertex -7.563960e+000 -2.259723e+001 -1.729455e+001
    endloop
  endfacet
  facet normal -4.055318e-001 -7.959028e-001 -4.495361e-001
    outer loop
      vertex -1.665625e+001 -2.259723e+001 -9.092283e+000
      vertex -7.563960e+000 -2.259723e+001 -1.729455e+001
      vertex -8.855419e+000 -2.657194e+001 -9.092283e+000
    endloop
  endfacet
  facet normal -1.397361e-001 -8.822648e-001 -4.495361e-001
    outer loop
      vertex -8.855419e+000 -2.657194e+001 -9.092283e+000
      vertex -7.563960e+000 -2.259723e+001 -1.729455e+001
      vertex -2.081443e-001 -2.376227e+001 -1.729455e+001
    endloop
  endfacet
  facet normal -1.397363e-001 -8.822647e-001 -4.495362e-001
    outer loop
      vertex -8.855419e+000 -2.657194e+001 -9.092283e+000
      vertex -2.081443e-001 -2.376227e+001 -1.729455e+001
      vertex -2.081403e-001 -2.794153e+001 -9.092283e+000
    endloop
  endfacet
  facet normal 1.397379e-001 -8.822644e-001 -4.495362e-001
    outer loop
      vertex -2.081403e-001 -2.794153e+001 -9.092283e+000
      vertex -2.081443e-001 -2.376227e+001 -1.729455e+001
      vertex 7.147669e+000 -2.259721e+001 -1.729455e+001
    endloop
  endfacet
  facet normal 1.397378e-001 -8.822644e-001 -4.495363e-001
    outer loop
      vertex -2.081403e-001 -2.794153e+001 -9.092283e+000
      vertex 7.147669e+000 -2.259721e+001 -1.729455e+001
      vertex 8.439137e+000 -2.657193e+001 -9.092283e+000
    endloop
  endfacet
  facet normal 4.055333e-001 -7.959019e-001 -4.495363e-001
    outer loop
      vertex 8.439137e+000 -2.657193e+001 -9.092283e+000
      vertex 7.147669e+000 -2.259721e+001 -1.729455e+001
      vertex 1.378344e+001 -1.921611e+001 -1.729455e+001
    endloop
  endfacet
  facet normal 4.055336e-001 -7.959019e-001 -4.495361e-001
    outer loop
      vertex 8.439137e+000 -2.657193e+001 -9.092283e+000
      vertex 1.378344e+001 -1.921611e+001 -1.729455e+001
      vertex 1.623995e+001 -2.259720e+001 -9.092283e+000
    endloop
  endfacet
  facet normal 6.316327e-001 -6.316308e-001 -4.495361e-001
    outer loop
      vertex 1.623995e+001 -2.259720e+001 -9.092283e+000
      vertex 1.378344e+001 -1.921611e+001 -1.729455e+001
      vertex 1.904961e+001 -1.394992e+001 -1.729455e+001
    endloop
  endfacet
  facet normal 6.316326e-001 -6.316308e-001 -4.495362e-001
    outer loop
      vertex 1.623995e+001 -2.259720e+001 -9.092283e+000
      vertex 1.904961e+001 -1.394992e+001 -1.729455e+001
      vertex 2.243071e+001 -1.640642e+001 -9.092283e+000
    endloop
  endfacet
  facet normal 7.959029e-001 -4.055314e-001 -4.495362e-001
    outer loop
      vertex 2.243071e+001 -1.640642e+001 -9.092283e+000
      vertex 1.904961e+001 -1.394992e+001 -1.729455e+001
      vertex 2.243070e+001 -7.314138e+000 -1.729455e+001
    endloop
  endfacet
  facet normal 7.959029e-001 -4.055314e-001 -4.495362e-001
    outer loop
      vertex 2.243071e+001 -1.640642e+001 -9.092283e+000
      vertex 2.243070e+001 -7.314138e+000 -1.729455e+001
      vertex 2.640542e+001 -8.605596e+000 -9.092283e+000
    endloop
  endfacet
  facet normal 8.822648e-001 -1.397356e-001 -4.495362e-001
    outer loop
      vertex 2.640542e+001 -8.605596e+000 -9.092283e+000
      vertex 2.243070e+001 -7.314138e+000 -1.729455e+001
      vertex 2.359574e+001 4.167784e-002 -1.729455e+001
    endloop
  endfacet
  facet normal 8.822648e-001 -1.397357e-001 -4.495362e-001
    outer loop
      vertex 2.640542e+001 -8.605596e+000 -9.092283e+000
      vertex 2.359574e+001 4.167784e-002 -1.729455e+001
      vertex 2.777500e+001 4.168455e-002 -9.092283e+000
    endloop
  endfacet
  facet normal 8.822644e-001 1.397384e-001 -4.495362e-001
    outer loop
      vertex 2.777500e+001 4.168455e-002 -9.092283e+000
      vertex 2.359574e+001 4.167784e-002 -1.729455e+001
      vertex 2.243068e+001 7.397491e+000 -1.729455e+001
    endloop
  endfacet
  facet normal 8.822643e-001 1.397384e-001 -4.495362e-001
    outer loop
      vertex 2.777500e+001 4.168455e-002 -9.092283e+000
      vertex 2.243068e+001 7.397491e+000 -1.729455e+001
      vertex 2.640539e+001 8.688960e+000 -9.092283e+000
    endloop
  endfacet
  facet normal 7.959016e-001 4.055341e-001 -4.495362e-001
    outer loop
      vertex 2.640539e+001 8.688960e+000 -9.092283e+000
      vertex 2.243068e+001 7.397491e+000 -1.729455e+001
      vertex 1.904957e+001 1.403326e+001 -1.729455e+001
    endloop
  endfacet
  facet normal 7.959016e-001 4.055339e-001 -4.495362e-001
    outer loop
      vertex 2.640539e+001 8.688960e+000 -9.092283e+000
      vertex 1.904957e+001 1.403326e+001 -1.729455e+001
      vertex 2.243066e+001 1.648977e+001 -9.092283e+000
    endloop
  endfacet
  facet normal 6.316305e-001 6.316329e-001 -4.495363e-001
    outer loop
      vertex 2.243066e+001 1.648977e+001 -9.092283e+000
      vertex 1.904957e+001 1.403326e+001 -1.729455e+001
      vertex 1.378338e+001 1.929943e+001 -1.729455e+001
    endloop
  endfacet
  facet normal 6.316304e-001 6.316331e-001 -4.495361e-001
    outer loop
      vertex 2.243066e+001 1.648977e+001 -9.092283e+000
      vertex 1.378338e+001 1.929943e+001 -1.729455e+001
      vertex 1.623988e+001 2.268053e+001 -9.092283e+000
    endloop
  endfacet
  facet normal 4.055311e-001 7.959031e-001 -4.495361e-001
    outer loop
      vertex 1.623988e+001 2.268053e+001 -9.092283e+000
      vertex 1.378338e+001 1.929943e+001 -1.729455e+001
      vertex 7.147596e+000 2.268052e+001 -1.729455e+001
    endloop
  endfacet
  facet normal 4.055311e-001 7.959031e-001 -4.495361e-001
    outer loop
      vertex 1.623988e+001 2.268053e+001 -9.092283e+000
      vertex 7.147596e+000 2.268052e+001 -1.729455e+001
      vertex 8.439051e+000 2.665523e+001 -9.092283e+000
    endloop
  endfacet
  facet normal 1.397359e-001 8.822648e-001 -4.495361e-001
    outer loop
      vertex 8.439051e+000 2.665523e+001 -9.092283e+000
      vertex 7.147596e+000 2.268052e+001 -1.729455e+001
      vertex -2.081684e-001 2.384554e+001 -1.729455e+001
    endloop
  endfacet
  facet normal 1.397360e-001 8.822647e-001 -4.495362e-001
    outer loop
      vertex 8.439051e+000 2.665523e+001 -9.092283e+000
      vertex -2.081684e-001 2.384554e+001 -1.729455e+001
      vertex -2.081685e-001 2.802481e+001 -9.092283e+000
    endloop
  endfacet
  facet normal -1.112991e-001 7.027135e-001 -7.027134e-001
    outer loop
      vertex -2.081684e-001 2.384554e+001 -1.729455e+001
      vertex -2.081681e-001 1.733619e+001 -2.380391e+001
      vertex -5.552477e+000 1.648973e+001 -2.380391e+001
    endloop
  endfacet
  facet normal -1.112990e-001 7.027135e-001 -7.027134e-001
    outer loop
      vertex -2.081684e-001 2.384554e+001 -1.729455e+001
      vertex -5.552477e+000 1.648973e+001 -2.380391e+001
      vertex -7.563979e+000 2.268050e+001 -1.729455e+001
    endloop
  endfacet
  facet normal -3.230020e-001 6.339272e-001 -7.027134e-001
    outer loop
      vertex -7.563979e+000 2.268050e+001 -1.729455e+001
      vertex -5.552477e+000 1.648973e+001 -2.380391e+001
      vertex -1.037365e+001 1.403322e+001 -2.380391e+001
    endloop
  endfacet
  facet normal -3.230020e-001 6.339271e-001 -7.027134e-001
    outer loop
      vertex -7.563979e+000 2.268050e+001 -1.729455e+001
      vertex -1.037365e+001 1.403322e+001 -2.380391e+001
      vertex -1.419975e+001 1.929940e+001 -1.729455e+001
    endloop
  endfacet
  facet normal -5.030873e-001 5.030875e-001 -7.027134e-001
    outer loop
      vertex -1.419975e+001 1.929940e+001 -1.729455e+001
      vertex -1.037365e+001 1.403322e+001 -2.380391e+001
      vertex -1.419975e+001 1.020712e+001 -2.380391e+001
    endloop
  endfacet
  facet normal -5.030874e-001 5.030875e-001 -7.027134e-001
    outer loop
      vertex -1.419975e+001 1.929940e+001 -1.729455e+001
      vertex -1.419975e+001 1.020712e+001 -2.380391e+001
      vertex -1.946593e+001 1.403322e+001 -1.729455e+001
    endloop
  endfacet
  facet normal -6.339271e-001 3.230020e-001 -7.027134e-001
    outer loop
      vertex -1.946593e+001 1.403322e+001 -1.729455e+001
      vertex -1.419975e+001 1.020712e+001 -2.380391e+001
      vertex -1.665626e+001 5.385946e+000 -2.380391e+001
    endloop
  endfacet
  facet normal -6.339272e-001 3.230019e-001 -7.027134e-001
    outer loop
      vertex -1.946593e+001 1.403322e+001 -1.729455e+001
      vertex -1.665626e+001 5.385946e+000 -2.380391e+001
      vertex -2.284703e+001 7.397446e+000 -1.729455e+001
    endloop
  endfacet
  facet normal -7.027137e-001 1.112987e-001 -7.027134e-001
    outer loop
      vertex -2.284703e+001 7.397446e+000 -1.729455e+001
      vertex -1.665626e+001 5.385946e+000 -2.380391e+001
      vertex -1.750272e+001 4.163399e-002 -2.380391e+001
    endloop
  endfacet
  facet normal -7.027137e-001 1.112987e-001 -7.027134e-001
    outer loop
      vertex -2.284703e+001 7.397446e+000 -1.729455e+001
      vertex -1.750272e+001 4.163399e-002 -2.380391e+001
      vertex -2.401207e+001 4.163187e-002 -1.729455e+001
    endloop
  endfacet
  facet normal -7.027136e-001 -1.112993e-001 -7.027134e-001
    outer loop
      vertex -2.401207e+001 4.163187e-002 -1.729455e+001
      vertex -1.750272e+001 4.163399e-002 -2.380391e+001
      vertex -1.665626e+001 -5.302677e+000 -2.380391e+001
    endloop
  endfacet
  facet normal -7.027136e-001 -1.112993e-001 -7.027134e-001
    outer loop
      vertex -2.401207e+001 4.163187e-002 -1.729455e+001
      vertex -1.665626e+001 -5.302677e+000 -2.380391e+001
      vertex -2.284702e+001 -7.314182e+000 -1.729455e+001
    endloop
  endfacet
  facet normal -6.339270e-001 -3.230024e-001 -7.027133e-001
    outer loop
      vertex -2.284702e+001 -7.314182e+000 -1.729455e+001
      vertex -1.665626e+001 -5.302677e+000 -2.380391e+001
      vertex -1.419974e+001 -1.012385e+001 -2.380391e+001
    endloop
  endfacet
  facet normal -6.339269e-001 -3.230022e-001 -7.027134e-001
    outer loop
      vertex -2.284702e+001 -7.314182e+000 -1.729455e+001
      vertex -1.419974e+001 -1.012385e+001 -2.380391e+001
      vertex -1.946592e+001 -1.394996e+001 -1.729455e+001
    endloop
  endfacet
  facet normal -5.030871e-001 -5.030876e-001 -7.027134e-001
    outer loop
      vertex -1.946592e+001 -1.394996e+001 -1.729455e+001
      vertex -1.419974e+001 -1.012385e+001 -2.380391e+001
      vertex -1.037364e+001 -1.394995e+001 -2.380391e+001
    endloop
  endfacet
  facet normal -5.030871e-001 -5.030877e-001 -7.027134e-001
    outer loop
      vertex -1.946592e+001 -1.394996e+001 -1.729455e+001
      vertex -1.037364e+001 -1.394995e+001 -2.380391e+001
      vertex -1.419974e+001 -1.921614e+001 -1.729455e+001
    endloop
  endfacet
  facet normal -3.230015e-001 -6.339274e-001 -7.027134e-001
    outer loop
      vertex -1.419974e+001 -1.921614e+001 -1.729455e+001
      vertex -1.037364e+001 -1.394995e+001 -2.380391e+001
      vertex -5.552463e+000 -1.640646e+001 -2.380391e+001
    endloop
  endfacet
  facet normal -3.230015e-001 -6.339273e-001 -7.027134e-001
    outer loop
      vertex -1.419974e+001 -1.921614e+001 -1.729455e+001
      vertex -5.552463e+000 -1.640646e+001 -2.380391e+001
      vertex -7.563960e+000 -2.259723e+001 -1.729455e+001
    endloop
  endfacet
  facet normal -1.112983e-001 -7.027137e-001 -7.027134e-001
    outer loop
      vertex -7.563960e+000 -2.259723e+001 -1.729455e+001
      vertex -5.552463e+000 -1.640646e+001 -2.380391e+001
      vertex -2.081506e-001 -1.725291e+001 -2.380391e+001
    endloop
  endfacet
  facet normal -1.112982e-001 -7.027137e-001 -7.027134e-001
    outer loop
      vertex -7.563960e+000 -2.259723e+001 -1.729455e+001
      vertex -2.081506e-001 -1.725291e+001 -2.380391e+001
      vertex -2.081443e-001 -2.376227e+001 -1.729455e+001
    endloop
  endfacet
  facet normal 1.112995e-001 -7.027135e-001 -7.027134e-001
    outer loop
      vertex -2.081443e-001 -2.376227e+001 -1.729455e+001
      vertex -2.081506e-001 -1.725291e+001 -2.380391e+001
      vertex 5.136160e+000 -1.640645e+001 -2.380391e+001
    endloop
  endfacet
  facet normal 1.112997e-001 -7.027135e-001 -7.027133e-001
    outer loop
      vertex -2.081443e-001 -2.376227e+001 -1.729455e+001
      vertex 5.136160e+000 -1.640645e+001 -2.380391e+001
      vertex 7.147669e+000 -2.259721e+001 -1.729455e+001
    endloop
  endfacet
  facet normal 3.230027e-001 -6.339268e-001 -7.027134e-001
    outer loop
      vertex 7.147669e+000 -2.259721e+001 -1.729455e+001
      vertex 5.136160e+000 -1.640645e+001 -2.380391e+001
      vertex 9.957331e+000 -1.394993e+001 -2.380391e+001
    endloop
  endfacet
  facet normal 3.230026e-001 -6.339268e-001 -7.027134e-001
    outer loop
      vertex 7.147669e+000 -2.259721e+001 -1.729455e+001
      vertex 9.957331e+000 -1.394993e+001 -2.380391e+001
      vertex 1.378344e+001 -1.921611e+001 -1.729455e+001
    endloop
  endfacet
  facet normal 5.030881e-001 -5.030867e-001 -7.027134e-001
    outer loop
      vertex 1.378344e+001 -1.921611e+001 -1.729455e+001
      vertex 9.957331e+000 -1.394993e+001 -2.380391e+001
      vertex 1.378343e+001 -1.012382e+001 -2.380391e+001
    endloop
  endfacet
  facet normal 5.030882e-001 -5.030866e-001 -7.027134e-001
    outer loop
      vertex 1.378344e+001 -1.921611e+001 -1.729455e+001
      vertex 1.378343e+001 -1.012382e+001 -2.380391e+001
      vertex 1.904961e+001 -1.394992e+001 -1.729455e+001
    endloop
  endfacet
  facet normal 6.339277e-001 -3.230011e-001 -7.027133e-001
    outer loop
      vertex 1.904961e+001 -1.394992e+001 -1.729455e+001
      vertex 1.378343e+001 -1.012382e+001 -2.380391e+001
      vertex 1.623993e+001 -5.302645e+000 -2.380391e+001
    endloop
  endfacet
  facet normal 6.339276e-001 -3.230012e-001 -7.027133e-001
    outer loop
      vertex 1.904961e+001 -1.394992e+001 -1.729455e+001
      vertex 1.623993e+001 -5.302645e+000 -2.380391e+001
      vertex 2.243070e+001 -7.314138e+000 -1.729455e+001
    endloop
  endfacet
  facet normal 7.027138e-001 -1.112978e-001 -7.027134e-001
    outer loop
      vertex 2.243070e+001 -7.314138e+000 -1.729455e+001
      vertex 1.623993e+001 -5.302645e+000 -2.380391e+001
      vertex 1.708638e+001 4.166739e-002 -2.380391e+001
    endloop
  endfacet
  facet normal 7.027138e-001 -1.112978e-001 -7.027134e-001
    outer loop
      vertex 2.243070e+001 -7.314138e+000 -1.729455e+001
      vertex 1.708638e+001 4.166739e-002 -2.380391e+001
      vertex 2.359574e+001 4.167784e-002 -1.729455e+001
    endloop
  endfacet
  facet normal 7.027134e-001 1.113000e-001 -7.027134e-001
    outer loop
      vertex 2.359574e+001 4.167784e-002 -1.729455e+001
      vertex 1.708638e+001 4.166739e-002 -2.380391e+001
      vertex 1.623992e+001 5.385978e+000 -2.380391e+001
    endloop
  endfacet
  facet normal 7.027134e-001 1.113000e-001 -7.027134e-001
    outer loop
      vertex 2.359574e+001 4.167784e-002 -1.729455e+001
      vertex 1.623992e+001 5.385978e+000 -2.380391e+001
      vertex 2.243068e+001 7.397491e+000 -1.729455e+001
    endloop
  endfacet
  facet normal 6.339265e-001 3.230031e-001 -7.027134e-001
    outer loop
      vertex 2.243068e+001 7.397491e+000 -1.729455e+001
      vertex 1.623992e+001 5.385978e+000 -2.380391e+001
      vertex 1.378340e+001 1.020715e+001 -2.380391e+001
    endloop
  endfacet
  facet normal 6.339265e-001 3.230033e-001 -7.027133e-001
    outer loop
      vertex 2.243068e+001 7.397491e+000 -1.729455e+001
      vertex 1.378340e+001 1.020715e+001 -2.380391e+001
      vertex 1.904957e+001 1.403326e+001 -1.729455e+001
    endloop
  endfacet
  facet normal 5.030864e-001 5.030886e-001 -7.027133e-001
    outer loop
      vertex 1.904957e+001 1.403326e+001 -1.729455e+001
      vertex 1.378340e+001 1.020715e+001 -2.380391e+001
      vertex 9.957285e+000 1.403324e+001 -2.380391e+001
    endloop
  endfacet
  facet normal 5.030864e-001 5.030884e-001 -7.027134e-001
    outer loop
      vertex 1.904957e+001 1.403326e+001 -1.729455e+001
      vertex 9.957285e+000 1.403324e+001 -2.380391e+001
      vertex 1.378338e+001 1.929943e+001 -1.729455e+001
    endloop
  endfacet
  facet normal 3.230008e-001 6.339276e-001 -7.027134e-001
    outer loop
      vertex 1.378338e+001 1.929943e+001 -1.729455e+001
      vertex 9.957285e+000 1.403324e+001 -2.380391e+001
      vertex 5.136107e+000 1.648974e+001 -2.380391e+001
    endloop
  endfacet
  facet normal 3.230008e-001 6.339277e-001 -7.027134e-001
    outer loop
      vertex 1.378338e+001 1.929943e+001 -1.729455e+001
      vertex 5.136107e+000 1.648974e+001 -2.380391e+001
      vertex 7.147596e+000 2.268052e+001 -1.729455e+001
    endloop
  endfacet
  facet normal 1.112980e-001 7.027137e-001 -7.027134e-001
    outer loop
      vertex 7.147596e+000 2.268052e+001 -1.729455e+001
      vertex 5.136107e+000 1.648974e+001 -2.380391e+001
      vertex -2.081681e-001 1.733619e+001 -2.380391e+001
    endloop
  endfacet
  facet normal 1.112980e-001 7.027137e-001 -7.027135e-001
    outer loop
      vertex 7.147596e+000 2.268052e+001 -1.729455e+001
      vertex -2.081681e-001 1.733619e+001 -2.380391e+001
      vertex -2.081684e-001 2.384554e+001 -1.729455e+001
    endloop
  endfacet
  facet normal -7.172003e-002 4.528212e-001 -8.887121e-001
    outer loop
      vertex -2.081681e-001 1.733619e+001 -2.380391e+001
      vertex -2.081677e-001 9.133916e+000 -2.798317e+001
      vertex -3.017836e+000 8.688908e+000 -2.798317e+001
    endloop
  endfacet
  facet normal -7.171994e-002 4.528212e-001 -8.887121e-001
    outer loop
      vertex -2.081681e-001 1.733619e+001 -2.380391e+001
      vertex -3.017836e+000 8.688908e+000 -2.798317e+001
      vertex -5.552477e+000 1.648973e+001 -2.380391e+001
    endloop
  endfacet
  facet normal -2.081391e-001 4.084960e-001 -8.887121e-001
    outer loop
      vertex -5.552477e+000 1.648973e+001 -2.380391e+001
      vertex -3.017836e+000 8.688908e+000 -2.798317e+001
      vertex -5.552473e+000 7.397446e+000 -2.798317e+001
    endloop
  endfacet
  facet normal -2.081391e-001 4.084960e-001 -8.887121e-001
    outer loop
      vertex -5.552477e+000 1.648973e+001 -2.380391e+001
      vertex -5.552473e+000 7.397446e+000 -2.798317e+001
      vertex -1.037365e+001 1.403322e+001 -2.380391e+001
    endloop
  endfacet
  facet normal -3.241842e-001 3.241842e-001 -8.887121e-001
    outer loop
      vertex -1.037365e+001 1.403322e+001 -2.380391e+001
      vertex -5.552473e+000 7.397446e+000 -2.798317e+001
      vertex -7.563974e+000 5.385945e+000 -2.798317e+001
    endloop
  endfacet
  facet normal -3.241842e-001 3.241843e-001 -8.887121e-001
    outer loop
      vertex -1.037365e+001 1.403322e+001 -2.380391e+001
      vertex -7.563974e+000 5.385945e+000 -2.798317e+001
      vertex -1.419975e+001 1.020712e+001 -2.380391e+001
    endloop
  endfacet
  facet normal -4.084960e-001 2.081389e-001 -8.887121e-001
    outer loop
      vertex -1.419975e+001 1.020712e+001 -2.380391e+001
      vertex -7.563974e+000 5.385945e+000 -2.798317e+001
      vertex -8.855436e+000 2.851306e+000 -2.798317e+001
    endloop
  endfacet
  facet normal -4.084959e-001 2.081390e-001 -8.887121e-001
    outer loop
      vertex -1.419975e+001 1.020712e+001 -2.380391e+001
      vertex -8.855436e+000 2.851306e+000 -2.798317e+001
      vertex -1.665626e+001 5.385946e+000 -2.380391e+001
    endloop
  endfacet
  facet normal -4.528212e-001 7.171971e-002 -8.887121e-001
    outer loop
      vertex -1.665626e+001 5.385946e+000 -2.380391e+001
      vertex -8.855436e+000 2.851306e+000 -2.798317e+001
      vertex -9.300444e+000 4.163667e-002 -2.798317e+001
    endloop
  endfacet
  facet normal -4.528212e-001 7.171973e-002 -8.887121e-001
    outer loop
      vertex -1.665626e+001 5.385946e+000 -2.380391e+001
      vertex -9.300444e+000 4.163667e-002 -2.798317e+001
      vertex -1.750272e+001 4.163399e-002 -2.380391e+001
    endloop
  endfacet
  facet normal -4.528212e-001 -7.172015e-002 -8.887121e-001
    outer loop
      vertex -1.750272e+001 4.163399e-002 -2.380391e+001
      vertex -9.300444e+000 4.163667e-002 -2.798317e+001
      vertex -8.855434e+000 -2.768032e+000 -2.798317e+001
    endloop
  endfacet
  facet normal -4.528211e-001 -7.172006e-002 -8.887121e-001
    outer loop
      vertex -1.750272e+001 4.163399e-002 -2.380391e+001
      vertex -8.855434e+000 -2.768032e+000 -2.798317e+001
      vertex -1.665626e+001 -5.302677e+000 -2.380391e+001
    endloop
  endfacet
  facet normal -4.084958e-001 -2.081392e-001 -8.887121e-001
    outer loop
      vertex -1.665626e+001 -5.302677e+000 -2.380391e+001
      vertex -8.855434e+000 -2.768032e+000 -2.798317e+001
      vertex -7.563971e+000 -5.302670e+000 -2.798317e+001
    endloop
  endfacet
  facet normal -4.084958e-001 -2.081393e-001 -8.887121e-001
    outer loop
      vertex -1.665626e+001 -5.302677e+000 -2.380391e+001
      vertex -7.563971e+000 -5.302670e+000 -2.798317e+001
      vertex -1.419974e+001 -1.012385e+001 -2.380391e+001
    endloop
  endfacet
  facet normal -3.241840e-001 -3.241843e-001 -8.887121e-001
    outer loop
      vertex -1.419974e+001 -1.012385e+001 -2.380391e+001
      vertex -7.563971e+000 -5.302670e+000 -2.798317e+001
      vertex -5.552468e+000 -7.314170e+000 -2.798317e+001
    endloop
  endfacet
  facet normal -3.241841e-001 -3.241844e-001 -8.887121e-001
    outer loop
      vertex -1.419974e+001 -1.012385e+001 -2.380391e+001
      vertex -5.552468e+000 -7.314170e+000 -2.798317e+001
      vertex -1.037364e+001 -1.394995e+001 -2.380391e+001
    endloop
  endfacet
  facet normal -2.081387e-001 -4.084961e-001 -8.887121e-001
    outer loop
      vertex -1.037364e+001 -1.394995e+001 -2.380391e+001
      vertex -5.552468e+000 -7.314170e+000 -2.798317e+001
      vertex -3.017828e+000 -8.605632e+000 -2.798317e+001
    endloop
  endfacet
  facet normal -2.081387e-001 -4.084961e-001 -8.887121e-001
    outer loop
      vertex -1.037364e+001 -1.394995e+001 -2.380391e+001
      vertex -3.017828e+000 -8.605632e+000 -2.798317e+001
      vertex -5.552463e+000 -1.640646e+001 -2.380391e+001
    endloop
  endfacet
  facet normal -7.171942e-002 -4.528213e-001 -8.887121e-001
    outer loop
      vertex -5.552463e+000 -1.640646e+001 -2.380391e+001
      vertex -3.017828e+000 -8.605632e+000 -2.798317e+001
      vertex -2.081585e-001 -9.050637e+000 -2.798317e+001
    endloop
  endfacet
  facet normal -7.171942e-002 -4.528213e-001 -8.887121e-001
    outer loop
      vertex -5.552463e+000 -1.640646e+001 -2.380391e+001
      vertex -2.081585e-001 -9.050637e+000 -2.798317e+001
      vertex -2.081506e-001 -1.725291e+001 -2.380391e+001
    endloop
  endfacet
  facet normal 7.172044e-002 -4.528212e-001 -8.887121e-001
    outer loop
      vertex -2.081506e-001 -1.725291e+001 -2.380391e+001
      vertex -2.081585e-001 -9.050637e+000 -2.798317e+001
      vertex 2.601510e+000 -8.605626e+000 -2.798317e+001
    endloop
  endfacet
  facet normal 7.172022e-002 -4.528211e-001 -8.887121e-001
    outer loop
      vertex -2.081506e-001 -1.725291e+001 -2.380391e+001
      vertex 2.601510e+000 -8.605626e+000 -2.798317e+001
      vertex 5.136160e+000 -1.640645e+001 -2.380391e+001
    endloop
  endfacet
  facet normal 2.081397e-001 -4.084956e-001 -8.887121e-001
    outer loop
      vertex 5.136160e+000 -1.640645e+001 -2.380391e+001
      vertex 2.601510e+000 -8.605626e+000 -2.798317e+001
      vertex 5.136147e+000 -7.314160e+000 -2.798317e+001
    endloop
  endfacet
  facet normal 2.081395e-001 -4.084956e-001 -8.887122e-001
    outer loop
      vertex 5.136160e+000 -1.640645e+001 -2.380391e+001
      vertex 5.136147e+000 -7.314160e+000 -2.798317e+001
      vertex 9.957331e+000 -1.394993e+001 -2.380391e+001
    endloop
  endfacet
  facet normal 3.241845e-001 -3.241838e-001 -8.887122e-001
    outer loop
      vertex 9.957331e+000 -1.394993e+001 -2.380391e+001
      vertex 5.136147e+000 -7.314160e+000 -2.798317e+001
      vertex 7.147646e+000 -5.302657e+000 -2.798317e+001
    endloop
  endfacet
  facet normal 3.241846e-001 -3.241837e-001 -8.887121e-001
    outer loop
      vertex 9.957331e+000 -1.394993e+001 -2.380391e+001
      vertex 7.147646e+000 -5.302657e+000 -2.798317e+001
      vertex 1.378343e+001 -1.012382e+001 -2.380391e+001
    endloop
  endfacet
  facet normal 4.084962e-001 -2.081385e-001 -8.887121e-001
    outer loop
      vertex 1.378343e+001 -1.012382e+001 -2.380391e+001
      vertex 7.147646e+000 -5.302657e+000 -2.798317e+001
      vertex 8.439106e+000 -2.768016e+000 -2.798317e+001
    endloop
  endfacet
  facet normal 4.084963e-001 -2.081385e-001 -8.887121e-001
    outer loop
      vertex 1.378343e+001 -1.012382e+001 -2.380391e+001
      vertex 8.439106e+000 -2.768016e+000 -2.798317e+001
      vertex 1.623993e+001 -5.302645e+000 -2.380391e+001
    endloop
  endfacet
  facet normal 4.528214e-001 -7.171912e-002 -8.887121e-001
    outer loop
      vertex 1.623993e+001 -5.302645e+000 -2.380391e+001
      vertex 8.439106e+000 -2.768016e+000 -2.798317e+001
      vertex 8.884109e+000 4.165423e-002 -2.798317e+001
    endloop
  endfacet
  facet normal 4.528214e-001 -7.171910e-002 -8.887121e-001
    outer loop
      vertex 1.623993e+001 -5.302645e+000 -2.380391e+001
      vertex 8.884109e+000 4.165423e-002 -2.798317e+001
      vertex 1.708638e+001 4.166739e-002 -2.380391e+001
    endloop
  endfacet
  facet normal 4.528211e-001 7.172061e-002 -8.887121e-001
    outer loop
      vertex 1.708638e+001 4.166739e-002 -2.380391e+001
      vertex 8.884109e+000 4.165423e-002 -2.798317e+001
      vertex 8.439097e+000 2.851322e+000 -2.798317e+001
    endloop
  endfacet
  facet normal 4.528212e-001 7.172056e-002 -8.887121e-001
    outer loop
      vertex 1.708638e+001 4.166739e-002 -2.380391e+001
      vertex 8.439097e+000 2.851322e+000 -2.798317e+001
      vertex 1.623992e+001 5.385978e+000 -2.380391e+001
    endloop
  endfacet
  facet normal 4.084956e-001 2.081398e-001 -8.887121e-001
    outer loop
      vertex 1.623992e+001 5.385978e+000 -2.380391e+001
      vertex 8.439097e+000 2.851322e+000 -2.798317e+001
      vertex 7.147630e+000 5.385959e+000 -2.798317e+001
    endloop
  endfacet
  facet normal 4.084956e-001 2.081398e-001 -8.887121e-001
    outer loop
      vertex 1.623992e+001 5.385978e+000 -2.380391e+001
      vertex 7.147630e+000 5.385959e+000 -2.798317e+001
      vertex 1.378340e+001 1.020715e+001 -2.380391e+001
    endloop
  endfacet
  facet normal 3.241835e-001 3.241849e-001 -8.887121e-001
    outer loop
      vertex 1.378340e+001 1.020715e+001 -2.380391e+001
      vertex 7.147630e+000 5.385959e+000 -2.798317e+001
      vertex 5.136124e+000 7.397457e+000 -2.798317e+001
    endloop
  endfacet
  facet normal 3.241835e-001 3.241849e-001 -8.887121e-001
    outer loop
      vertex 1.378340e+001 1.020715e+001 -2.380391e+001
      vertex 5.136124e+000 7.397457e+000 -2.798317e+001
      vertex 9.957285e+000 1.403324e+001 -2.380391e+001
    endloop
  endfacet
  facet normal 2.081383e-001 4.084964e-001 -8.887121e-001
    outer loop
      vertex 9.957285e+000 1.403324e+001 -2.380391e+001
      vertex 5.136124e+000 7.397457e+000 -2.798317e+001
      vertex 2.601482e+000 8.688914e+000 -2.798317e+001
    endloop
  endfacet
  facet normal 2.081384e-001 4.084963e-001 -8.887121e-001
    outer loop
      vertex 9.957285e+000 1.403324e+001 -2.380391e+001
      vertex 2.601482e+000 8.688914e+000 -2.798317e+001
      vertex 5.136107e+000 1.648974e+001 -2.380391e+001
    endloop
  endfacet
  facet normal 7.171924e-002 4.528212e-001 -8.887122e-001
    outer loop
      vertex 5.136107e+000 1.648974e+001 -2.380391e+001
      vertex 2.601482e+000 8.688914e+000 -2.798317e+001
      vertex -2.081677e-001 9.133916e+000 -2.798317e+001
    endloop
  endfacet
  facet normal 7.171925e-002 4.528213e-001 -8.887122e-001
    outer loop
      vertex 5.136107e+000 1.648974e+001 -2.380391e+001
      vertex -2.081677e-001 9.133916e+000 -2.798317e+001
      vertex -2.081681e-001 1.733619e+001 -2.380391e+001
    endloop
  endfacet
  facet normal -2.476918e-002 1.563862e-001 -9.873853e-001
    outer loop
      vertex -2.081673e-001 4.163963e-002 -2.942324e+001
      vertex -3.017836e+000 8.688908e+000 -2.798317e+001
      vertex -2.081677e-001 9.133916e+000 -2.798317e+001
    endloop
  endfacet
  facet normal -7.188285e-002 1.410781e-001 -9.873853e-001
    outer loop
      vertex -2.081673e-001 4.163963e-002 -2.942324e+001
      vertex -5.552473e+000 7.397446e+000 -2.798317e+001
      vertex -3.017836e+000 8.688908e+000 -2.798317e+001
    endloop
  endfacet
  facet normal -1.119602e-001 1.119602e-001 -9.873853e-001
    outer loop
      vertex -2.081673e-001 4.163963e-002 -2.942324e+001
      vertex -7.563974e+000 5.385945e+000 -2.798317e+001
      vertex -5.552473e+000 7.397446e+000 -2.798317e+001
    endloop
  endfacet
  facet normal -1.410781e-001 7.188280e-002 -9.873853e-001
    outer loop
      vertex -2.081673e-001 4.163963e-002 -2.942324e+001
      vertex -8.855436e+000 2.851306e+000 -2.798317e+001
      vertex -7.563974e+000 5.385945e+000 -2.798317e+001
    endloop
  endfacet
  facet normal -1.563863e-001 2.476913e-002 -9.873853e-001
    outer loop
      vertex -2.081673e-001 4.163963e-002 -2.942324e+001
      vertex -9.300444e+000 4.163667e-002 -2.798317e+001
      vertex -8.855436e+000 2.851306e+000 -2.798317e+001
    endloop
  endfacet
  facet normal -1.563862e-001 -2.476920e-002 -9.873853e-001
    outer loop
      vertex -2.081673e-001 4.163963e-002 -2.942324e+001
      vertex -8.855434e+000 -2.768032e+000 -2.798317e+001
      vertex -9.300444e+000 4.163667e-002 -2.798317e+001
    endloop
  endfacet
  facet normal -1.410781e-001 -7.188292e-002 -9.873853e-001
    outer loop
      vertex -2.081673e-001 4.163963e-002 -2.942324e+001
      vertex -7.563971e+000 -5.302670e+000 -2.798317e+001
      vertex -8.855434e+000 -2.768032e+000 -2.798317e+001
    endloop
  endfacet
  facet normal -1.119601e-001 -1.119603e-001 -9.873853e-001
    outer loop
      vertex -2.081673e-001 4.163963e-002 -2.942324e+001
      vertex -5.552468e+000 -7.314170e+000 -2.798317e+001
      vertex -7.563971e+000 -5.302670e+000 -2.798317e+001
    endloop
  endfacet
  facet normal -7.188271e-002 -1.410781e-001 -9.873853e-001
    outer loop
      vertex -2.081673e-001 4.163963e-002 -2.942324e+001
      vertex -3.017828e+000 -8.605632e+000 -2.798317e+001
      vertex -5.552468e+000 -7.314170e+000 -2.798317e+001
    endloop
  endfacet
  facet normal -2.476902e-002 -1.563863e-001 -9.873853e-001
    outer loop
      vertex -2.081673e-001 4.163963e-002 -2.942324e+001
      vertex -2.081585e-001 -9.050637e+000 -2.798317e+001
      vertex -3.017828e+000 -8.605632e+000 -2.798317e+001
    endloop
  endfacet
  facet normal 2.476932e-002 -1.563862e-001 -9.873853e-001
    outer loop
      vertex -2.081673e-001 4.163963e-002 -2.942324e+001
      vertex 2.601510e+000 -8.605626e+000 -2.798317e+001
      vertex -2.081585e-001 -9.050637e+000 -2.798317e+001
    endloop
  endfacet
  facet normal 7.188304e-002 -1.410780e-001 -9.873853e-001
    outer loop
      vertex -2.081673e-001 4.163963e-002 -2.942324e+001
      vertex 5.136147e+000 -7.314160e+000 -2.798317e+001
      vertex 2.601510e+000 -8.605626e+000 -2.798317e+001
    endloop
  endfacet
  facet normal 1.119603e-001 -1.119601e-001 -9.873853e-001
    outer loop
      vertex -2.081673e-001 4.163963e-002 -2.942324e+001
      vertex 7.147646e+000 -5.302657e+000 -2.798317e+001
      vertex 5.136147e+000 -7.314160e+000 -2.798317e+001
    endloop
  endfacet
  facet normal 1.410782e-001 -7.188267e-002 -9.873853e-001
    outer loop
      vertex -2.081673e-001 4.163963e-002 -2.942324e+001
      vertex 8.439106e+000 -2.768016e+000 -2.798317e+001
      vertex 7.147646e+000 -5.302657e+000 -2.798317e+001
    endloop
  endfacet
  facet normal 1.563863e-001 -2.476891e-002 -9.873853e-001
    outer loop
      vertex -2.081673e-001 4.163963e-002 -2.942324e+001
      vertex 8.884109e+000 4.165423e-002 -2.798317e+001
      vertex 8.439106e+000 -2.768016e+000 -2.798317e+001
    endloop
  endfacet
  facet normal 1.563862e-001 2.476939e-002 -9.873853e-001
    outer loop
      vertex -2.081673e-001 4.163963e-002 -2.942324e+001
      vertex 8.439097e+000 2.851322e+000 -2.798317e+001
      vertex 8.884109e+000 4.165423e-002 -2.798317e+001
    endloop
  endfacet
  facet normal 1.410779e-001 7.188313e-002 -9.873853e-001
    outer loop
      vertex -2.081673e-001 4.163963e-002 -2.942324e+001
      vertex 7.147630e+000 5.385959e+000 -2.798317e+001
      vertex 8.439097e+000 2.851322e+000 -2.798317e+001
    endloop
  endfacet
  facet normal 1.119600e-001 1.119604e-001 -9.873853e-001
    outer loop
      vertex -2.081673e-001 4.163963e-002 -2.942324e+001
      vertex 5.136124e+000 7.397457e+000 -2.798317e+001
      vertex 7.147630e+000 5.385959e+000 -2.798317e+001
    endloop
  endfacet
  facet normal 7.188260e-002 1.410782e-001 -9.873853e-001
    outer loop
      vertex -2.081673e-001 4.163963e-002 -2.942324e+001
      vertex 2.601482e+000 8.688914e+000 -2.798317e+001
      vertex 5.136124e+000 7.397457e+000 -2.798317e+001
    endloop
  endfacet
  facet normal 2.476897e-002 1.563862e-001 -9.873853e-001
    outer loop
      vertex -2.081673e-001 4.163963e-002 -2.942324e+001
      vertex -2.081677e-001 9.133916e+000 -2.798317e+001
      vertex 2.601482e+000 8.688914e+000 -2.798317e+001
    endloop
  endfacet
endsolid Object01
